SplineFontDB: 3.2
FontName: AurebeshTypewriter-Light
FullName: Aurebesh Typewriter Light
FamilyName: AurebeshTypewriter
Weight: Light
Copyright: CC-0 public domain
Version: 1
ItalicAngle: 0
UnderlinePosition: 0
UnderlineWidth: 0
Ascent: 800
Descent: 200
InvalidEm: 0
sfntRevision: 0x00010000
LayerCount: 2
Layer: 0 0 "Back" 1
Layer: 1 0 "Fore" 0
XUID: [1021 178 1911899458 29766]
StyleMap: 0x0040
FSType: 8
OS2Version: 3
OS2_WeightWidthSlopeOnly: 0
OS2_UseTypoMetrics: 0
CreationTime: 1585617095
ModificationTime: 1589767294
PfmFamily: 17
TTFWeight: 400
TTFWidth: 5
LineGap: 90
VLineGap: 0
Panose: 2 0 5 3 0 0 0 0 0 0
OS2TypoAscent: 800
OS2TypoAOffset: 0
OS2TypoDescent: -200
OS2TypoDOffset: 0
OS2TypoLinegap: 90
OS2WinAscent: 849
OS2WinAOffset: 0
OS2WinDescent: 180
OS2WinDOffset: 0
HheadAscent: 849
HheadAOffset: 0
HheadDescent: -180
HheadDOffset: 0
OS2SubXSize: 650
OS2SubYSize: 699
OS2SubXOff: 0
OS2SubYOff: 140
OS2SupXSize: 650
OS2SupYSize: 699
OS2SupXOff: 0
OS2SupYOff: 479
OS2StrikeYSize: 49
OS2StrikeYPos: 258
OS2CapHeight: 740
OS2XHeight: 499
OS2Vendor: 'PfEd'
OS2CodePages: 00000001.00000000
OS2UnicodeRanges: 00000001.00000000.00000000.00000000
MarkAttachClasses: 1
DEI: 91125
LangName: 1033 "" "" "" "" "" "" "" "" "" "" "" "" "" "" "" "" "Aurebesh_Typewriter"
Encoding: UnicodeBmp
UnicodeInterp: none
NameList: AGL For New Fonts
DisplaySize: -72
AntiAlias: 1
FitToEm: 0
WinInfo: 64 8 2
BeginPrivate: 7
BlueValues 34 [-147 -40 496 502 499 502 740 740]
BlueScale 10 0.00925234
BlueShift 1 0
StdHW 4 [60]
StdVW 4 [60]
StemSnapH 13 [57 58 59 60]
StemSnapV 16 [58 59 60 62 90]
EndPrivate
BeginChars: 65536 79

StartChar: ltr65
Encoding: 65 65 1
Width: 650
GlyphClass: 2
Flags: MW
HStem: -40 60<-9.99902 46.001 -29.999 76.001 106.001 164.001 336.001 369.968 439.99 510.001> 680 60<-9.99902 46.001 46.001 46.001 106.001 164.001 336 369.967 369.967 369.967 439.99 510.001>
LayerCount: 2
Fore
SplineSet
369.966796875 680 m 1
 233.000976562 452 l 1
 106.000976562 452 l 1
 106.000976562 680 l 1
 164.000976562 680 l 2
 204.000976562 680 204.000976562 740 164.000976562 740 c 2
 76.0009765625 740 l 1
 -9.9990234375 740 l 2
 -49.9990234375 740 -49.9990234375 680 -9.9990234375 680 c 2
 46.0009765625 680 l 1
 46.0009765625 422 l 2
 46.0009765625 405 59.0009765625 392 76.0009765625 392 c 2
 250.000976562 392 l 2
 261.000976562 392 270.000976562 397 276.000976562 407 c 2
 439.990234375 680 l 1
 510.000976562 680 l 2
 550.000976562 680 550.000976562 740 510.000976562 740 c 2
 427.135742188 740 l 2
 423.98046875 740.51953125 420.74609375 740.544921875 417.555664062 740 c 2
 336 740 l 2
 296 740 296 680 336 680 c 2
 369.966796875 680 l 1
439.990234375 20 m 1
 276.000976562 293 l 2
 270.000976562 303 261.000976562 308 250.000976562 308 c 2
 76.0009765625 308 l 2
 59.0009765625 308 46.0009765625 295 46.0009765625 278 c 2
 46.0009765625 20 l 1
 -9.9990234375 20 l 2
 -49.9990234375 20 -49.9990234375 -40 -9.9990234375 -40 c 2
 76.0009765625 -40 l 1
 164.000976562 -40 l 2
 204.000976562 -40 204.000976562 20 164.000976562 20 c 2
 106.000976562 20 l 1
 106.000976562 248 l 1
 233.000976562 248 l 1
 369.967773438 20 l 1
 336.000976562 20 l 2
 296.000976562 20 296.000976562 -40 336.000976562 -40 c 2
 417.556640625 -40 l 2
 420.74609375 -40.544921875 423.98046875 -40.51953125 427.135742188 -40 c 2
 510.000976562 -40 l 2
 550.000976562 -40 550.000976562 20 510.000976562 20 c 2
 439.990234375 20 l 1
EndSplineSet
EndChar

StartChar: ltr66
Encoding: 66 66 2
Width: 650
GlyphClass: 2
Flags: MW
HStem: -40 60 319 60 638.155 21G 680 60
VStem: -40 60<176.5 250 176.5 250> 480 60<-30 230 -10 57.3848 176.5 230 230 240>
LayerCount: 2
Fore
SplineSet
-40 230 m 0
 -40 95 54 -40.0009765625 250 -40.0009765625 c 0
 356.173828125 -40.0009765625 432.416992188 -0.3857421875 480 57.384765625 c 1
 480 -10 l 2
 480 -50 540 -50 540 -10 c 2
 540 230 l 2
 540 250 525 260 510 260 c 0
 495 260 480 250 480 230 c 0
 480 123 402 20 250 20 c 0
 98 20 20 123 20 230 c 0
 20 270 -40 270 -40 230 c 0
164 318.999023438 m 2
 336 318.999023438 l 2
 376 318.999023438 376 378.999023438 336 378.999023438 c 2
 164 378.999023438 l 2
 124 378.999023438 124 318.999023438 164 318.999023438 c 2
-10 438.999023438 m 0
 5 438.999023438 19.9990234375 448.999023438 19.9990234375 468.999023438 c 0
 19.9990234375 574.999023438 97.9990234375 679.999023438 249.999023438 679.999023438 c 0
 401.999023438 679.999023438 479.999023438 574.999023438 479.999023438 468.999023438 c 0
 479.999023438 428.999023438 539.999023438 428.999023438 539.999023438 468.999023438 c 0
 539.999023438 602.999023438 445.999023438 739.999023438 249.999023438 739.999023438 c 0
 141.711914062 739.999023438 64.5595703125 698.180664062 17.1923828125 638.154296875 c 1
 16 709.999023438 l 2
 16 749.999023438 -44 749.999023438 -44 709.999023438 c 2
 -40 468.999023438 l 2
 -40 448.999023438 -25 438.999023438 -10 438.999023438 c 0
EndSplineSet
EndChar

StartChar: ltr67
Encoding: 67 67 3
Width: 650
GlyphClass: 2
Flags: MW
HStem: -40 60<336 393 316 423 453 510> 200 60<-10 46 -30 76> 439 60<453 510> 680 60<-30 46 -30 46>
VStem: 220 60<210 469 230 469>
LayerCount: 2
Fore
SplineSet
220 469 m 2
 220 230 l 2
 220 190 280 190 280 230 c 2
 280 469 l 2
 280 509 220 509 220 469 c 2
401.405273438 490.594726562 m 0
 396.323242188 485.612304688 393 478.413085938 393 469 c 2
 393 20 l 1
 336 20 l 2
 296 20 296 -40 336 -40 c 2
 423 -40 l 1
 510 -40 l 2
 550 -40 550 20 510 20 c 2
 453 20 l 1
 453 439 l 1
 510 439 l 2
 550 439 550 499 510 499 c 2
 423 499 l 2
 413.5859375 499 406.387695312 495.676757812 401.405273438 490.594726562 c 0
76 739.999023438 m 1
 -10 740 l 2
 -50 740 -50 680 -10 680 c 2
 46 680 l 1
 46 260 l 1
 -10 260 l 2
 -50 260 -50 200 -10 200 c 2
 76 200 l 2
 85.4140625 200 92.6123046875 203.323242188 97.5947265625 208.405273438 c 0
 102.676757812 213.387695312 106 220.5859375 106 229.999023438 c 2
 106 679.999023438 l 1
 164 679.999023438 l 2
 204 679.999023438 204 739.999023438 164 739.999023438 c 2
 76 739.999023438 l 1
EndSplineSet
EndChar

StartChar: ltr68
Encoding: 68 68 4
Width: 650
GlyphClass: 2
Flags: MW
HStem: -40 60<250 309.142 370.109 423.001> 680 60<19.5029 388.893 388.893 388.893 449.859 510.001>
VStem: 134 60<210 319 230 319 230 349 379 469>
LayerCount: 2
Fore
SplineSet
250 -40 m 2
 423.000976562 -40 l 2
 463.000976562 -40 463.000976562 20 423.000976562 20 c 2
 370.109375 20 l 1
 449.859375 680 l 1
 510.000976562 680 l 2
 550.000976562 680 550.000976562 740 510.000976562 740 c 2
 -9.9990234375 740 l 2
 -19.4130859375 740 -26.611328125 736.676757812 -31.59375 731.594726562 c 0
 -36.67578125 726.612304688 -39.9990234375 719.4140625 -39.9990234375 710 c 2
 -43.9990234375 469 l 2
 -43.9990234375 429 16.0009765625 429 16.0009765625 469 c 2
 19.5029296875 680 l 1
 388.892578125 680 l 1
 352.03125 374.94140625 l 1
 347.696289062 377.487304688 342.352539062 379 336 379 c 2
 194 379 l 1
 194 469 l 2
 194 509 134 509 134 469 c 2
 134 349 l 1
 134 230 l 2
 134 190 194 190 194 230 c 2
 194 319 l 1
 336 319 l 2
 339.435546875 319 342.576171875 319.442382812 345.421875 320.251953125 c 1
 309.141601562 20 l 1
 250 20 l 2
 210 20 210 -40 250 -40 c 2
EndSplineSet
EndChar

StartChar: ltr69
Encoding: 69 69 5
Width: 650
GlyphClass: 2
Flags: MW
HStem: -40 60<336 393 316 423 453 510> 680 60<-10 50.4795 50.4795 50.4795 112.231 163.999 361 393 393 393 452.999 509.999>
LayerCount: 2
Fore
SplineSet
453 20 m 1
 452.999023438 680 l 1
 509.999023438 680 l 2
 549.999023438 680 549.999023438 740 509.999023438 740 c 2
 422.999023438 740 l 1
 335.999023438 740 l 2
 320.999023438 740 308.999023438 730 305.999023438 715 c 2
 204.999023438 159 l 1
 112.231445312 680 l 1
 163.999023438 680 l 2
 203.999023438 680 203.999023438 740 163.999023438 740 c 2
 79.322265625 740 l 2
 77.279296875 740.190429688 75.2177734375 740 73.173828125 740 c 2
 -10 740 l 2
 -50 740 -50 680 -10 680 c 2
 50.4794921875 680 l 1
 175 -15 l 2
 181 -44 229 -44 235 -15 c 2
 361 680 l 1
 393 680 l 1
 393 20 l 1
 336 20 l 2
 296 20 296 -40 336 -40 c 2
 423 -40 l 1
 510 -40 l 2
 550 -40 550 20 510 20 c 2
 453 20 l 1
EndSplineSet
EndChar

StartChar: ltr70
Encoding: 70 70 6
Width: 650
GlyphClass: 2
Flags: MW
HStem: -40 60 439.067 59.8328 680 60
VStem: 481 59<-14.7065 20> 488 60<230 250>
LayerCount: 2
Fore
SplineSet
481 20 m 1xf0
 280.000976562 19.9990234375 l 1
 280.000976562 445.716796875 l 1
 416.583984375 457.232421875 474.213867188 488.215820312 534.001953125 570.999023438 c 0
 558.001953125 603.999023438 509.001953125 638.999023438 486.001953125 606.999023438 c 0
 436.02734375 537.155273438 384.240234375 512.264648438 280.000976562 503.514648438 c 1
 280.000976562 679.999023438 l 1
 336.000976562 679.999023438 l 2
 376.000976562 679.999023438 376.000976562 739.999023438 336.000976562 739.999023438 c 2
 250.000976562 739.999023438 l 1
 164.000976562 739.999023438 l 2
 124.000976562 739.999023438 124.000976562 679.999023438 164.000976562 679.999023438 c 2
 220.000976562 679.999023438 l 1
 220.000976562 500.244140625 l 1
 179.865234375 498.9609375 133.325195312 498.834960938 78.671875 498.893554688 c 0
 76.921875 499.033203125 75.1591796875 498.900390625 73.408203125 498.900390625 c 0
 47.4697265625 498.93359375 19.7265625 499.000976562 -10 499.000976562 c 0
 -50 499.000976562 -50 439.000976562 -10 439.000976562 c 0
 9.44140625 439.000976562 28.09375 439.017578125 46 439.068359375 c 1
 46 20.0009765625 l 1
 -10 20.0009765625 l 2
 -50 20.0009765625 -50 -39.9990234375 -10 -39.9990234375 c 2
 76 -39.9990234375 l 1
 250 -39.9990234375 l 1
 510 -39.9990234375 l 2
 519.4140625 -39.9990234375 526.612304688 -36.67578125 531.594726562 -31.59375 c 0
 536.676757812 -26.611328125 540 -19.4130859375 540 -10 c 2xf0
 548 230 l 2
 548 270 488 270 488 230 c 2xe8
 481 20 l 1xf0
106.000976562 19.9990234375 m 1
 106.000976562 439.411132812 l 1
 148.53515625 439.8125 186.279296875 440.583984375 220.000976562 442.030273438 c 1
 220.000976562 19.9990234375 l 1
 106.000976562 19.9990234375 l 1
EndSplineSet
EndChar

StartChar: ltr71
Encoding: 71 71 7
Width: 650
GlyphClass: 2
Flags: MW
HStem: -40 60 680 60<305.502 480.001 480.001 480.001>
VStem: 480 60
LayerCount: 2
Fore
SplineSet
305.501953125 680 m 1
 480.000976562 680 l 1
 480.000976562 478.504882812 480.966796875 249.958984375 320.51953125 20.0009765625 c 1
 106 20.0009765625 l 1
 106 680.000976562 l 1
 164 680.000976562 l 2
 204 680.000976562 204 740.000976562 164 740.000976562 c 2
 76 740.000976562 l 1
 -10 740.000976562 l 2
 -50 740.000976562 -50 680.000976562 -10 680.000976562 c 2
 46 680.000976562 l 1
 46 20.0009765625 l 1
 -10 20.0009765625 l 2
 -50 20.0009765625 -50 -39.9990234375 -10 -39.9990234375 c 2
 76 -39.9990234375 l 1
 330.8359375 -39.9990234375 l 2
 337.838867188 -41.4794921875 345.323242188 -40.46875 351.912109375 -36.009765625 c 0
 356.872070312 -33.130859375 360.522460938 -28.9052734375 362.86328125 -24.0439453125 c 0
 539.010742188 220.626953125 540 464.32421875 540 710 c 0
 540 727 527 740 510 740 c 2
 276 740 l 2
 266.5859375 740 259.387695312 736.676757812 254.405273438 731.594726562 c 0
 249.323242188 726.612304688 246 719.4140625 246 710 c 2
 242 469 l 2
 242 429 302 429 302 469 c 2
 305.501953125 680 l 1
EndSplineSet
EndChar

StartChar: ltr72
Encoding: 72 72 8
Width: 650
GlyphClass: 2
Flags: MW
HStem: 319 60<164 336> 660 20G<19.502 480.498 480.498 480.498>
VStem: -40 59.5<-14.7075 19.999> 480.5 59.5<-14.7075 19.999>
LayerCount: 2
Fore
SplineSet
164 319 m 2
 336 319 l 2
 376 319 376 379 336 379 c 2
 164 379 l 2
 124 379 124 319 164 319 c 2
531.594726562 731.594726562 m 0
 526.612304688 736.676757812 519.4140625 740 510 740 c 2
 -10 740 l 2
 -19.4140625 740 -26.6123046875 736.676757812 -31.5947265625 731.594726562 c 0
 -36.6767578125 726.612304688 -40 719.4140625 -40 710 c 2
 -44 469 l 2
 -44 429 16 429 16 469 c 2
 19.501953125 680 l 1
 480.498046875 680 l 1
 484 469 l 2
 484 429 544 429 544 469 c 2
 540 710 l 2
 540 719.4140625 536.676757812 726.612304688 531.594726562 731.594726562 c 0
-31.5947265625 -31.5947265625 m 0
 -26.6123046875 -36.6767578125 -19.4140625 -40 -10 -40 c 2
 510 -40 l 2
 519.4140625 -40 526.612304688 -36.6767578125 531.594726562 -31.5947265625 c 0
 536.676757812 -26.6123046875 540 -19.4140625 540 -10.0009765625 c 2
 544 229.999023438 l 2
 544 269.999023438 484 269.999023438 484 229.999023438 c 2
 480.5 19.9990234375 l 1
 19.5 19.9990234375 l 1
 16 229.999023438 l 2
 16 269.999023438 -44 269.999023438 -44 229.999023438 c 2
 -40 -10.0009765625 l 2
 -40 -19.4140625 -36.6767578125 -26.6123046875 -31.5947265625 -31.5947265625 c 0
EndSplineSet
EndChar

StartChar: ltr73
Encoding: 73 73 9
Width: 650
GlyphClass: 2
Flags: MW
HStem: -40 60<336 393 316 423 453 510> 680 60<19.502 336 336 393 393 393 453 510>
LayerCount: 2
Fore
SplineSet
423 740 m 1
 336 740 l 1
 -10 740 l 2
 -19.4140625 740 -26.6123046875 736.676757812 -31.5947265625 731.594726562 c 0
 -36.6767578125 726.612304688 -40 719.4140625 -40 710 c 2
 -44 469 l 2
 -44 429 16 429 16 469 c 2
 19.501953125 680 l 1
 336 680 l 1
 393 680 l 1
 393 20 l 1
 336 20 l 2
 296 20 296 -40 336 -40 c 2
 423 -40 l 1
 510 -40 l 2
 550 -40 550 20 510 20 c 2
 453 20 l 1
 453 680 l 1
 510 680 l 2
 550 680 550 740 510 740 c 2
 423 740 l 1
EndSplineSet
EndChar

StartChar: ltr74
Encoding: 74 74 10
Width: 650
GlyphClass: 2
Flags: MW
HStem: -40 60<19 226 19 250 287.277 336> 674.141 20G 679.122 60.8778
VStem: -40 59<-10 20>
LayerCount: 2
Fore
SplineSet
287.27734375 20 m 1xd0
 444.53515625 722.926757812 l 1
 474.374023438 741.689453125 498.413085938 767.356445312 522.999023438 802 c 0
 546.999023438 834 497.999023438 869 474.999023438 836 c 0
 394.999023438 724 311.999023438 731 -9.0009765625 740 c 0
 -16.421875 740.185546875 -22.53515625 738.271484375 -27.314453125 735.0234375 c 0
 -34.474609375 730.362304688 -39.6337890625 722.42578125 -39.9814453125 711.21484375 c 0
 -40.009765625 710.60546875 -40.0224609375 709.995117188 -40.0185546875 709.384765625 c 2
 -47.0009765625 469 l 2
 -47.0009765625 429 12.9990234375 429 12.9990234375 469 c 2
 19.1025390625 679.122070312 l 1xb0
 196.377929688 674.147460938 302.596679688 675.012695312 375.80859375 694.140625 c 1
 226 20 l 1
 19 20 l 1
 13 230 l 2
 13 270 -47 270 -47 230 c 2
 -40 -10 l 2
 -39 -26 -26 -40 -10 -40 c 2
 250 -40 l 1
 336 -40 l 2
 376 -40 376 20 336 20 c 2
 287.27734375 20 l 1xd0
EndSplineSet
EndChar

StartChar: ltr75
Encoding: 75 75 11
Width: 650
GlyphClass: 2
Flags: MW
HStem: -40 60 680 60
VStem: -40 59.5<-14.7075 19.999>
LayerCount: 2
Fore
SplineSet
-31.5947265625 -31.5947265625 m 0
 -26.6123046875 -36.6767578125 -19.4140625 -40.001953125 -10 -40.001953125 c 2
 423 -40.001953125 l 1
 510 -40.001953125 l 2
 550 -40.001953125 550 19.998046875 510 19.998046875 c 2
 453 19.998046875 l 1
 453 679.998046875 l 1
 510 679.998046875 l 2
 550 679.998046875 550 739.998046875 510 739.998046875 c 2
 423 739.998046875 l 1
 -10 739.998046875 l 2
 -19.4140625 739.998046875 -26.6123046875 736.674804688 -31.5947265625 731.592773438 c 0
 -36.6767578125 726.610351562 -40 719.412109375 -40 709.999023438 c 2
 -44 468.999023438 l 2
 -44 428.999023438 16 428.999023438 16 468.999023438 c 2
 19.501953125 679.999023438 l 1
 393 679.999023438 l 1
 393 19.9990234375 l 1
 19.5 19.9990234375 l 1
 16 229.999023438 l 2
 16 269.999023438 -44 269.999023438 -44 229.999023438 c 2
 -40 -10.0009765625 l 2
 -40 -19.4140625 -36.6767578125 -26.6123046875 -31.5947265625 -31.5947265625 c 0
EndSplineSet
EndChar

StartChar: ltr76
Encoding: 76 76 12
Width: 650
GlyphClass: 2
Flags: MW
HStem: -40 60 680 60
VStem: -40 60<-30 69.5566 -10 69.5566 -10 103.167 -10 113.852 131.955 230.001>
LayerCount: 2
Fore
SplineSet
20 69.556640625 m 1
 411.139648438 -37.9384765625 l 2
 412.9921875 -38.6455078125 414.987304688 -39.1865234375 417.124023438 -39.5361328125 c 0
 421.498046875 -40.51171875 425.561523438 -40.607421875 429.266601562 -39.9990234375 c 2
 510 -39.9990234375 l 2
 550 -39.9990234375 550 20.0009765625 510 20.0009765625 c 2
 453 20.0009765625 l 1
 453 680.000976562 l 1
 510 680.000976562 l 2
 550 680.000976562 550 740.000976562 510 740.000976562 c 2
 423 740.000976562 l 1
 336 740.000976562 l 2
 296 740.000976562 296 680.000976562 336 680.000976562 c 2
 393 680.000976562 l 1
 393 29.4443359375 l 1
 20 131.955078125 l 1
 20 230.000976562 l 2
 20 270.000976562 -40 270.000976562 -40 230.000976562 c 2
 -40 113.8515625 l 2
 -40.5888671875 110.317382812 -40.6064453125 106.690429688 -40 103.166992188 c 2
 -40 -10 l 2
 -40 -50 20 -50 20 -10 c 2
 20 69.556640625 l 1
EndSplineSet
EndChar

StartChar: ltr77
Encoding: 77 77 13
Width: 650
GlyphClass: 2
Flags: MW
HStem: -40 60 652.186 20G
VStem: 52.3424 60.8587 488 60
LayerCount: 2
Fore
SplineSet
113.201171875 20 m 1
 175.514648438 334.077148438 39.5673828125 556.71875 481.256835938 672.1875 c 1
 488.001953125 469.001953125 l 2
 488.001953125 429.001953125 548.001953125 429.001953125 548.001953125 469.001953125 c 2
 540.103515625 706.932617188 l 2
 540.262695312 709.298828125 540.15234375 711.690429688 539.787109375 714.046875 c 0
 538.553710938 725.388671875 532.134765625 733.013671875 523.928710938 736.920898438 c 0
 520.553710938 738.643554688 516.708007812 739.713867188 512.444335938 739.913085938 c 0
 507.713867188 740.256835938 502.90234375 739.600585938 498.483398438 737.943359375 c 0
 -22.0791015625 615.224609375 131.962890625 381.810546875 52.3427734375 20.0009765625 c 1
 -10 20.0009765625 l 2
 -50 20.0009765625 -50 -39.9990234375 -10 -39.9990234375 c 2
 73.279296875 -39.9990234375 l 2
 75.509765625 -40.2275390625 77.7607421875 -40.2314453125 79.982421875 -39.9990234375 c 2
 510 -39.9990234375 l 2
 519.4140625 -39.9990234375 526.612304688 -36.67578125 531.594726562 -31.59375 c 0
 536.676757812 -26.611328125 540 -19.4130859375 540 -10 c 2
 548 230 l 2
 548 270 488 270 488 230 c 2
 481 20 l 1
 113.201171875 20 l 1
EndSplineSet
EndChar

StartChar: ltr78
Encoding: 78 78 14
Width: 650
GlyphClass: 2
Flags: MW
HStem: -40 60<336 393 316 423 453 510> 518 20G<393 393> 680 60<-10 48.292 48.292 48.292 123.5 164 336 380.611 380.611 380.611 453 510>
VStem: -40 60<257.79 431.747>
LayerCount: 2
Fore
SplineSet
48.2919921875 680 m 1
 -2.1943359375 620.668945312 -40 514.491210938 -40 349.001953125 c 0
 -40 69.8701171875 67.5556640625 -38.5546875 162.103515625 -39.984375 c 0
 168.340820312 -40.5751953125 174.696289062 -39.3427734375 180.112304688 -35.8916015625 c 0
 187.578125 -31.4716796875 192.034179688 -23.9794921875 193.479492188 -15.892578125 c 2
 393 538 l 1
 393 20 l 1
 336 20 l 2
 296 20 296 -40 336 -40 c 2
 423 -40 l 1
 510 -40 l 2
 550 -40 550 20 510 20 c 2
 453 20 l 1
 453 680 l 1
 510 680 l 2
 550 680 550 740 510 740 c 2
 336 740 l 2
 296 740 296 680 336 680 c 2
 380.611328125 680 l 1
 144.155273438 22.671875 l 1
 72.939453125 42.140625 20 166.579101562 20 349 c 0
 20 548 83 680 164 680 c 0
 184 680 194 695 194 710 c 0
 194 725 184 740 164 740 c 2
 -10 740 l 2
 -50 740 -50 680 -10 680 c 2
 48.2919921875 680 l 1
EndSplineSet
EndChar

StartChar: ltr79
Encoding: 79 79 15
Width: 650
GlyphClass: 2
Flags: MW
HStem: -40 60<-10 47.8203 -30 73.75 108.076 390.977 451.227 510> 680 60<218 282>
VStem: 85 60<592 638 589 665.5> 355 60<589 666.5 589 666.5>
LayerCount: 2
Fore
SplineSet
108.076171875 20 m 1
 145 589 l 1
 145 591 l 2
 145 685 186 680 250 680 c 0
 314 680 355 687 355 591 c 2
 355 589 l 1
 390.9765625 20 l 1
 108.076171875 20 l 1
451.2265625 20 m 1
 415 592 l 1
 415 741 358 740 250 740 c 0
 142 740 85 739 85 592 c 1
 47.8203125 20 l 1
 -10 20 l 2
 -50 20 -50 -40 -10 -40 c 2
 73.75 -40 l 2
 75.2451171875 -40.099609375 76.748046875 -40 78.2431640625 -40 c 2
 420.423828125 -40 l 2
 421.904296875 -40.099609375 423.392578125 -40 424.875 -40 c 2
 510 -40 l 2
 550 -40 550 20 510 20 c 2
 451.2265625 20 l 1
EndSplineSet
EndChar

StartChar: ltr80
Encoding: 80 80 16
Width: 650
GlyphClass: 2
Flags: MW
HStem: -40 60 653.957 20G 680 60
VStem: -40 60<249.501 436.082 249.501 489.501>
LayerCount: 2
Fore
SplineSet
185.594726562 731.594726562 m 0
 180.612304688 736.676757812 173.4140625 740.000976562 164 740.000976562 c 0
 69 740.000976562 -40 630.000976562 -40 349.000976562 c 0
 -40 68.0009765625 69 -39.9990234375 164 -39.9990234375 c 2
 423 -39.9990234375 l 1
 510 -39.9990234375 l 2
 550 -39.9990234375 550 20.0009765625 510 20.0009765625 c 2
 453 20.0009765625 l 1
 453 680.000976562 l 1
 510 680.000976562 l 2
 550 680.000976562 550 740.000976562 510 740.000976562 c 2
 423 740.000976562 l 1
 336 740.000976562 l 2
 296 740.000976562 296 680.000976562 336 680.000976562 c 2
 393 680.000976562 l 1
 393 20.0009765625 l 1
 164 20.0009765625 l 2
 83 20.0009765625 20 150.000976562 20 349.000976562 c 0
 20 523.162109375 68.2548828125 646.004882812 134.598632812 673.95703125 c 1
 138 469 l 2
 138 429 198 429 198 469 c 2
 194 710 l 2
 194 719.4140625 190.676757812 726.612304688 185.594726562 731.594726562 c 0
EndSplineSet
EndChar

StartChar: ltr81
Encoding: 81 81 17
Width: 650
GlyphClass: 2
Flags: MW
HStem: 680 60
VStem: 34.8587 62.4953 393 60
LayerCount: 2
Fore
SplineSet
46.048828125 -14.41796875 m 0
 46.8701171875 -21.3310546875 49.998046875 -27.92578125 55.7822265625 -32.70703125 c 0
 61.0908203125 -37.869140625 67.8671875 -40.2666015625 74.7177734375 -40.3857421875 c 0
 237.068359375 -78.52734375 240.859375 26.806640625 401.000976562 -76 c 0
 435.000976562 -98 467.000976562 -47 433.000976562 -26 c 0
 268.110351562 81.6640625 263.154296875 -18.5869140625 98.7529296875 15.439453125 c 1
 25.2880859375 236.654296875 25.677734375 457.888671875 97.3544921875 679.999023438 c 1
 393 679.999023438 l 1
 393 348.999023438 l 2
 393 308.999023438 453 308.999023438 453 348.999023438 c 2
 453 679.999023438 l 1
 510 679.999023438 l 2
 550 679.999023438 550 739.999023438 510 739.999023438 c 2
 423 739.999023438 l 1
 79.89453125 739.999023438 l 2
 76.671875 740.51171875 73.3837890625 740.529296875 70.1796875 739.999023438 c 2
 -10 739.999023438 l 2
 -50 739.999023438 -50 679.999023438 -10 679.999023438 c 2
 34.8583984375 679.999023438 l 1
 -37.2744140625 447.499023438 -34.37109375 217.405273438 46.048828125 -14.41796875 c 0
EndSplineSet
EndChar

StartChar: ltr82
Encoding: 82 82 18
Width: 650
GlyphClass: 2
Flags: MW
HStem: -40 60<76 143.194 206.389 250> 680 60<20 380.611 380.611 380.611 443.806 510>
VStem: -40 60<449 680 469 680 469 710>
LayerCount: 2
Fore
SplineSet
206.388671875 20 m 1
 443.805664062 680 l 1
 510 680 l 2
 550 680 550 740 510 740 c 2
 424.741210938 740 l 2
 422.8671875 740.16796875 420.982421875 740.171875 419.1171875 740 c 2
 -10 740 l 2
 -19.4140625 740 -26.6123046875 736.676757812 -31.5947265625 731.594726562 c 0
 -36.6767578125 726.612304688 -40 719.4140625 -40 710 c 2
 -40 469 l 2
 -40 429 20 429 20 469 c 2
 20 680 l 1
 380.611328125 680 l 1
 143.194335938 20 l 1
 76 20 l 2
 36 20 36 -40 76 -40 c 2
 162.258789062 -40 l 2
 164.1328125 -40.16796875 166.017578125 -40.171875 167.8828125 -40 c 2
 250 -40 l 2
 290 -40 290 20 250 20 c 2
 206.388671875 20 l 1
EndSplineSet
EndChar

StartChar: ltr83
Encoding: 83 83 19
Width: 650
GlyphClass: 2
Flags: MW
HStem: -40 60<336 393 316 423 453 510> 146 58 321.172 60.3657 680 60<-10 48.8545 48.8545 48.8545 109.234 164 336 393 393 393 453 510>
VStem: 48.8549 60.3798
LayerCount: 2
Fore
SplineSet
51 281 m 0
 97 215 159 169 242 146 c 0
 281 135 297 193 258 204 c 0
 189 223 139 261 101 315 c 0
 78 348 28 314 51 281 c 0
76 740 m 1
 -10 740 l 2
 -50 740 -50 680 -10 680 c 2
 48.8544921875 680 l 1
 71.806640625 550.966796875 229.6015625 344.529296875 393 321.171875 c 1
 393 20 l 1
 336 20 l 2
 296 20 296 -40 336 -40 c 2
 423 -40 l 1
 510 -40 l 2
 550 -40 550 20 510 20 c 2
 453 20 l 1
 453 349 l 1
 453 680 l 1
 510 680 l 2
 550 680 550 740 510 740 c 2
 423 740 l 1
 336 740 l 2
 296 740 296 680 336 680 c 2
 393 680 l 1
 393 381.537109375 l 1
 257.977539062 404.07421875 130.8828125 571.6796875 109.234375 680 c 1
 164 680 l 2
 204 680 204 740 164 740 c 2
 76 740 l 1
EndSplineSet
EndChar

StartChar: ltr84
Encoding: 84 84 20
Width: 650
GlyphClass: 2
Flags: MW
HStem: 680 60
VStem: -40 60 480 60
LayerCount: 2
Fore
SplineSet
480 161.845703125 m 1
 480.002929688 109.000976562 l 2
 480.002929688 69.0009765625 540.002929688 69.0009765625 540.002929688 109.000976562 c 2
 540.002929688 224.73046875 l 2
 540.670898438 228.162109375 540.630859375 231.595703125 540.00390625 234.904296875 c 2
 540.00390625 349.000976562 l 2
 540.00390625 389.000976562 480.00390625 389.000976562 480.00390625 349.000976562 c 2
 480.00390625 242.770507812 l 1
 280.00390625 58.1552734375 l 1
 280.00390625 680.000976562 l 1
 336.00390625 680.000976562 l 2
 376.00390625 680.000976562 376.00390625 740.000976562 336.00390625 740.000976562 c 2
 250.00390625 740.000976562 l 1
 164.00390625 740.000976562 l 2
 124.00390625 740.000976562 124.00390625 680.000976562 164.00390625 680.000976562 c 2
 220.00390625 680.000976562 l 1
 220.00390625 58.1552734375 l 1
 20.00390625 242.770507812 l 1
 20.00390625 349.000976562 l 2
 20.00390625 389.000976562 -39.99609375 389.000976562 -39.99609375 349.000976562 c 2
 -39.99609375 234.904296875 l 2
 -40.6240234375 231.595703125 -40.6640625 228.162109375 -39.99609375 224.73046875 c 2
 -39.99609375 109.000976562 l 2
 -39.99609375 69.0009765625 20.00390625 69.0009765625 20.00390625 109.000976562 c 2
 20.00390625 161.846679688 l 1
 224.76953125 -27.16796875 l 2
 228.154296875 -32.326171875 233.064453125 -35.9287109375 238.580078125 -37.9765625 c 0
 242.153320312 -39.5595703125 246.0234375 -40.4501953125 250.001953125 -40.4482421875 c 0
 253.98046875 -40.4482421875 257.850585938 -39.560546875 261.423828125 -37.9775390625 c 0
 266.939453125 -35.9296875 271.849609375 -32.3271484375 275.234375 -27.1689453125 c 2
 480 161.845703125 l 1
EndSplineSet
EndChar

StartChar: ltr85
Encoding: 85 85 21
Width: 650
GlyphClass: 2
Flags: MW
HStem: -40 60<453 453 453 510 453 530> 597.775 20G 680 60<-10 46 46 46 106 164>
VStem: 46 60<44.5 680 109 680>
LayerCount: 2
Fore
SplineSet
453 20 m 1
 453 680.001953125 l 1
 510 680.001953125 l 2
 550 680.001953125 550 740.001953125 510 740.001953125 c 2
 426.748046875 740.001953125 l 2
 422.610351562 740.591796875 418.338867188 740.297851562 414.2109375 738.921875 c 0
 408.971679688 737.552734375 404.703125 734.958984375 401.405273438 731.594726562 c 0
 398.561523438 728.806640625 396.268554688 725.325195312 394.80078125 721.150390625 c 2
 226 486.000976562 l 2
 202 454.000976562 251 419.000976562 274 452.000976562 c 2
 393 617.775390625 l 1
 393 19.8564453125 l 1
 216.407226562 18.25390625 106 5.73046875 106 109 c 2
 106 680 l 1
 164 680 l 2
 204 680 204 740 164 740 c 2
 76 740 l 1
 -10 740 l 2
 -50 740 -50 680 -10 680 c 2
 46 680 l 1
 46 109 l 2
 46 -20 99 -40 423 -40 c 2
 510 -40 l 2
 550 -40 550 20 510 20 c 2
 453 20 l 1
EndSplineSet
EndChar

StartChar: ltr86
Encoding: 86 86 22
Width: 650
GlyphClass: 2
Flags: MW
HStem: -40 60<164.001 220.001 144.001 250.001 280.001 336.001> 680 60<-10 57.1943 57.1943 57.1943 441.854 510.001>
LayerCount: 2
Fore
SplineSet
220 342.224609375 m 1
 220.000976562 20 l 1
 164.000976562 20 l 2
 124.000976562 20 124.000976562 -40 164.000976562 -40 c 2
 250.000976562 -40 l 1
 336.000976562 -40 l 2
 376.000976562 -40 376.000976562 20 336.000976562 20 c 2
 280.000976562 20 l 1
 280.000976562 342.259765625 l 1
 441.854492188 680 l 1
 510.000976562 680 l 2
 550.000976562 680 550.000976562 740 510.000976562 740 c 2
 425.758789062 740 l 2
 423.138671875 740.34375 420.484375 740.35546875 417.87109375 739.999023438 c 2
 336 739.999023438 l 2
 296 739.999023438 296 679.999023438 336 679.999023438 c 2
 375.393554688 679.999023438 l 1
 249.922851562 418.177734375 l 1
 123.7265625 679.999023438 l 1
 164.000976562 679.999023438 l 2
 204.000976562 679.999023438 204.000976562 739.999023438 164.000976562 739.999023438 c 2
 81.1298828125 739.999023438 l 2
 78.5166015625 740.35546875 75.8623046875 740.34375 73.2421875 740 c 2
 -10 740 l 2
 -50 740 -50 680 -10 680 c 2
 57.1943359375 680 l 1
 220 342.224609375 l 1
EndSplineSet
EndChar

StartChar: ltr87
Encoding: 87 87 23
Width: 650
GlyphClass: 2
Flags: MW
HStem: -40 60<-10 46 -30 76 106 393 453 510> 680 60<-10 46 46 46 106 393 393 393 453 510>
LayerCount: 2
Fore
SplineSet
453 20 m 1
 453 680 l 1
 510 680 l 2
 550 680 550 740 510 740 c 2
 423 740 l 1
 76 740 l 1
 -10 740 l 2
 -50 740 -50 680 -10 680 c 2
 46 680 l 1
 46 20 l 1
 -10 20 l 2
 -50 20 -50 -40 -10 -40 c 2
 76 -40 l 1
 423 -40 l 1
 510 -40 l 2
 550 -40 550 20 510 20 c 2
 453 20 l 1
393 20 m 1
 106 20 l 1
 106 680 l 1
 393 680 l 1
 393 20 l 1
EndSplineSet
EndChar

StartChar: ltr88
Encoding: 88 88 24
Width: 650
GlyphClass: 2
Flags: MW
HStem: -40 60<-9.99902 52.5596 113.943 385.111 446.476 510.002> 562.654 20G 680 60<287.893 336.002 253.984 356.002>
LayerCount: 2
Fore
SplineSet
425.720703125 -40 m 2
 510.001953125 -40 l 2
 550.001953125 -40 550.001953125 20 510.001953125 20 c 2
 446.475585938 20 l 1
 287.892578125 680 l 1
 336.001953125 680 l 2
 376.001953125 680 376.001953125 740 336.001953125 740 c 2
 253.984375 740 l 2
 252.6640625 740.138671875 251.333007812 740.193359375 250.001953125 740.166992188 c 0
 243.370117188 740.298828125 236.73828125 738.416992188 231.390625 734.21875 c 0
 230.206054688 733.32421875 229.114257812 732.344726562 228.114257812 731.29296875 c 0
 223.263671875 726.59375 220.0546875 720.1640625 219.872070312 712.329101562 c 2
 52.5595703125 20 l 1
 -9.9990234375 20 l 2
 -49.9990234375 20 -49.9990234375 -40 -9.9990234375 -40 c 2
 73.2802734375 -40 l 2
 75.5107421875 -40.228515625 77.76171875 -40.232421875 79.9833984375 -40 c 2
 419.017578125 -40 l 2
 421.239257812 -40.232421875 423.490234375 -40.228515625 425.720703125 -40 c 2
385.111328125 20 m 1
 113.943359375 20 l 1
 249.91796875 582.654296875 l 1
 385.111328125 20 l 1
EndSplineSet
EndChar

StartChar: ltr89
Encoding: 89 89 25
Width: 650
GlyphClass: 2
Flags: MW
HStem: 680 60
LayerCount: 2
Fore
SplineSet
280.129882812 -12.298828125 m 2
 446.473632812 680.000976562 l 1
 510 680.000976562 l 2
 550 680.000976562 550 740.000976562 510 740.000976562 c 2
 425.720703125 740.000976562 l 2
 423.490234375 740.229492188 421.239257812 740.233398438 419.017578125 740.000976562 c 2
 336 740.000976562 l 2
 296 740.000976562 296 680.000976562 336 680.000976562 c 2
 385.109375 680.000976562 l 1
 249.916015625 117.346679688 l 1
 113.94140625 680.000976562 l 1
 149.239257812 680.000976562 l 1
 226 572.000976562 l 2
 249 539.000976562 298 574.000976562 274 606.000976562 c 2
 191.991210938 721.385742188 l 2
 188.978515625 729.532226562 182.578125 736.364257812 172.7890625 738.921875 c 0
 168.661132812 740.297851562 164.389648438 740.591796875 160.251953125 740.000976562 c 2
 79.9833984375 740.000976562 l 2
 77.76171875 740.233398438 75.5107421875 740.229492188 73.2802734375 740.000976562 c 2
 -9.9990234375 740.000976562 l 2
 -49.9990234375 740.000976562 -49.9990234375 680.000976562 -9.9990234375 680.000976562 c 2
 52.5595703125 680.000976562 l 1
 219.872070312 -12.328125 l 2
 220.067382812 -20.716796875 223.732421875 -27.4951171875 229.16796875 -32.2626953125 c 0
 234.831054688 -37.8330078125 242.416015625 -40.31640625 250.000976562 -40.166015625 c 0
 257.5859375 -40.31640625 265.170898438 -37.8330078125 270.833984375 -32.2626953125 c 0
 276.275390625 -27.4892578125 279.942382812 -20.701171875 280.129882812 -12.298828125 c 2
EndSplineSet
EndChar

StartChar: ltr90
Encoding: 90 90 26
Width: 650
GlyphClass: 2
Flags: MW
HStem: -40 60 559.005 59.9767 680 60
VStem: -47 60<229.999 249.999> -40 59.125<-14.7075 19.999> 20 58
LayerCount: 2
Fore
SplineSet
-31.5947265625 -31.5947265625 m 0xec
 -26.6123046875 -36.6767578125 -19.4140625 -40.0009765625 -10 -40.0009765625 c 2
 423 -40.0009765625 l 1
 510 -40.0009765625 l 2
 550 -40.0009765625 550 19.9990234375 510 19.9990234375 c 2
 453 19.9990234375 l 1
 453 588.999023438 l 1
 453 679.999023438 l 1
 510 679.999023438 l 2
 550 679.999023438 550 739.999023438 510 739.999023438 c 2
 423 739.999023438 l 1
 336 739.999023438 l 2
 296 739.999023438 296 679.999023438 336 679.999023438 c 2
 393 679.999023438 l 1
 393 618.98046875 l 1
 86.1162109375 618.515625 86.8876953125 607.1015625 20 356.998046875 c 0
 10 317.998046875 68 302.998046875 78 340.998046875 c 0
 134.837890625 554.86328125 139.705078125 558.98828125 393 559.00390625 c 1
 393 19.9990234375 l 1
 19.125 19.9990234375 l 1xec
 13 229.999023438 l 2
 13 269.999023438 -47 269.999023438 -47 229.999023438 c 2xf4
 -40 -10.0009765625 l 2
 -40 -19.4140625 -36.6767578125 -26.6123046875 -31.5947265625 -31.5947265625 c 0xec
EndSplineSet
EndChar

StartChar: ltr97
Encoding: 97 97 27
Width: 650
GlyphClass: 2
Flags: MW
HStem: -40 60<-10.001 45.999 -30.001 75.999 105.999 163.999 422.999 458.898> 133 60<105.999 200.696> 268 60<106 200.354 106 216> 439 60<-10 46 46 46 423 458.085 458.085 458.085>
LayerCount: 2
Fore
SplineSet
-10 439 m 2
 46 439 l 1
 46 298 l 2
 46 281 59 268 76 268 c 0
 356 268 444 274 537 455 c 0
 542.537109375 466.07421875 541.260742188 476.296875 536.315429688 484.125 c 0
 532.295898438 491.669921875 524.98828125 497.486328125 514.392578125 498.74609375 c 0
 511.07421875 499.372070312 507.674804688 499.481445312 504.345703125 499 c 2
 423 499 l 2
 383 499 383 439 423 439 c 2
 458.084960938 439 l 1
 383.287109375 323.155273438 294.708984375 328 106 328 c 1
 106 469 l 2
 106 486 93 499 76 499 c 2
 -10 499 l 2
 -50 499 -50 439 -10 439 c 2
534.16015625 8.5654296875 m 0
 442.1875 187.12109375 353.1484375 193 75.9990234375 193 c 0
 58.9990234375 193 45.9990234375 180 45.9990234375 163 c 2
 45.9990234375 20 l 1
 -10.0009765625 20 l 2
 -50.0009765625 20 -50.0009765625 -40 -10.0009765625 -40 c 2
 75.9990234375 -40 l 1
 163.999023438 -40 l 2
 203.999023438 -40 203.999023438 20 163.999023438 20 c 2
 105.999023438 20 l 1
 105.999023438 133 l 1
 295.392578125 133 383.927734375 137.879882812 458.8984375 20 c 1
 422.999023438 20 l 2
 382.999023438 20 382.999023438 -40 422.999023438 -40 c 2
 507.615234375 -40 l 2
 508.662109375 -40.052734375 509.7109375 -39.9931640625 510.7578125 -39.9931640625 c 0
 522.383789062 -39.76953125 530.54296875 -34.412109375 535.235351562 -26.9833984375 c 0
 540.365234375 -20.08203125 542.424804688 -10.984375 538.775390625 -1.033203125 c 0
 537.80859375 2.408203125 536.270507812 5.67578125 534.16015625 8.5654296875 c 0
EndSplineSet
EndChar

StartChar: ltr98
Encoding: 98 98 28
Width: 650
GlyphClass: 2
Flags: MW
HStem: -50 60<211 289 211 297> 197 60<164 336> 442 60
VStem: -40 60
LayerCount: 2
Fore
SplineSet
164 197 m 2
 336 197 l 2
 376 197 376 257 336 257 c 2
 164 257 l 2
 124 257 124 197 164 197 c 2
-35 85 m 0
 60 -49 156 -50 250 -50 c 0
 344 -50 439 -49 534 85 c 0
 558 117 509 152 486 119 c 0
 407 9 328 10 250 10 c 0
 172 10 92 9 15 119 c 0
 -9 152 -58 117 -35 85 c 0
7.197265625 323.900390625 m 0
 11.1845703125 326.46875 14.55859375 330.044921875 16.8408203125 334.631835938 c 0
 93.2744140625 442.983398438 172.62109375 441.999023438 249.999023438 441.999023438 c 0
 327.999023438 441.999023438 406.999023438 442.999023438 485.999023438 331.999023438 c 0
 508.999023438 298.999023438 557.999023438 333.999023438 533.999023438 365.999023438 c 0
 438.999023438 500.999023438 343.999023438 501.999023438 249.999023438 501.999023438 c 0
 174.109375 501.999023438 96.916015625 501.34765625 19.998046875 430.05859375 c 1
 19.998046875 472 l 2
 19.998046875 512 -40.001953125 512 -40.001953125 472 c 2
 -40.001953125 355.44921875 l 2
 -42.259765625 346.846679688 -40.1357421875 338.686523438 -35.49609375 332.236328125 c 0
 -31.923828125 326.575195312 -26.5419921875 322.729492188 -20.51171875 320.700195312 c 0
 -11.681640625 317.26171875 -1.41796875 317.629882812 7.197265625 323.900390625 c 0
EndSplineSet
EndChar

StartChar: ltr99
Encoding: 99 99 29
Width: 650
GlyphClass: 2
Flags: MW
HStem: -180 60 79 60<-10 46 -30 76> 319 60 439 60
VStem: 220 60<88.999 348.999 108.999 348.999> 393 60<-10.001 -10 -10 108.999 108.999 109 109 318.999>
LayerCount: 2
Fore
SplineSet
55 -71 m 0
 81 -131 152 -180.000976562 250 -180.000976562 c 0
 354 -180.000976562 453 -120.000976562 453 -10.0009765625 c 2
 453 108.999023438 l 1
 453 318.999023438 l 1
 510 318.999023438 l 2
 550 318.999023438 550 378.999023438 510 378.999023438 c 2
 423 378.999023438 l 2
 413.5859375 378.999023438 406.387695312 375.67578125 401.405273438 370.59375 c 0
 396.323242188 365.611328125 393 358.413085938 393 349 c 2
 393 109 l 1
 393 -10 l 2
 393 -88 318 -120 250 -120 c 0
 182 -120 129 -89 109 -47 c 0
 93 -10 38 -35 55 -71 c 0
220 348.999023438 m 2
 220 108.999023438 l 2
 220 68.9990234375 280 68.9990234375 280 108.999023438 c 2
 280 348.999023438 l 2
 280 388.999023438 220 388.999023438 220 348.999023438 c 2
-10 438.999023438 m 2
 46 439 l 1
 46 139 l 1
 -10 139 l 2
 -50 139 -50 79 -10 79 c 2
 76 79 l 2
 85.4140625 79 92.6123046875 82.3232421875 97.5947265625 87.4052734375 c 0
 102.676757812 92.3876953125 106 99.5859375 106 108.999023438 c 2
 106 468.999023438 l 2
 106 485.999023438 93 498.999023438 76 498.999023438 c 2
 -10 498.999023438 l 2
 -50 498.999023438 -50 438.999023438 -10 438.999023438 c 2
EndSplineSet
EndChar

StartChar: ltr100
Encoding: 100 100 30
Width: 650
GlyphClass: 2
Flags: MW
HStem: -180 60<209.573 250 209.573 250 209.573 270> 200 60<76 96> 438.386 60.6143
VStem: -40 60<349 398.5 304.5 419.5>
LayerCount: 2
Fore
SplineSet
419.962890625 499 m 2
 164 499 l 2
 54 499 -40 490 -40 349 c 0
 -39 199 76 200 76 200 c 1
 116 200 116 260 76 260 c 1
 76 260 20 260 20 349 c 0
 20 448 98 439 164 439 c 2
 377.169921875 438.385742188 l 1
 303.846679688 263.146484375 l 1
 248 260 l 2
 208 258 212 198 252 200 c 2
 278.0390625 201.466796875 l 1
 136 -138 l 2
 131.712890625 -148.575195312 133.143554688 -158.006835938 137.748046875 -165.244140625 c 0
 142.264648438 -173.629882812 150.86328125 -179.8515625 163.54296875 -179.998046875 c 0
 164.70703125 -180.063476562 165.874023438 -180 167.037109375 -180 c 2
 250 -180 l 2
 290 -180 290 -120 250 -120 c 2
 209.573242188 -120 l 1
 443.131835938 438.1953125 l 1
 511 438 l 2
 552 439 551 500 510 499 c 2
 423.41015625 499 l 2
 422.26171875 499.063476562 421.110351562 499 419.962890625 499 c 2
EndSplineSet
EndChar

StartChar: ltr101
Encoding: 101 101 31
Width: 650
GlyphClass: 2
Flags: MW
HStem: -40 60<453 453 453 510 453 530> 439 60
LayerCount: 2
Fore
SplineSet
453 20 m 1
 453.000976562 438.999023438 l 1
 510.000976562 438.999023438 l 2
 550.000976562 438.999023438 550.000976562 498.999023438 510.000976562 498.999023438 c 2
 423.000976562 498.999023438 l 1
 336.000976562 498.999023438 l 2
 322.000976562 498.999023438 311.000976562 489.999023438 307.000976562 476.999023438 c 2
 200.000976562 104.999023438 l 1
 105.756835938 473.046875 l 2
 104.115234375 486.583007812 94.1962890625 498.999023438 76 498.999023438 c 2
 -10 498.999023438 l 2
 -50 498.999023438 -50 438.999023438 -10 438.999023438 c 2
 52.8583984375 438.999023438 l 1
 169 -17.0009765625 l 2
 176 -44.0009765625 219 -45.0009765625 227 -18.0009765625 c 2
 359 438.999023438 l 1
 393 438.999023438 l 1
 393 -10.0009765625 l 2
 393 -19.4140625 396.323242188 -26.6123046875 401.405273438 -31.5947265625 c 0
 406.387695312 -36.6767578125 413.5859375 -40 423 -40 c 2
 510 -40 l 2
 550 -40 550 20 510 20 c 2
 453 20 l 1
EndSplineSet
EndChar

StartChar: ltr102
Encoding: 102 102 32
Width: 650
GlyphClass: 2
Flags: MW
HStem: -40 60 319 60 326.181 57.9066 680 60<144 164>
VStem: 480 60<20.001 109.001 20.001 20.001>
LayerCount: 2
Fore
SplineSet
164 680 m 2xb8
 220.000976562 680.001953125 l 1
 220.000976562 380.609375 l 1
 179.680664062 379.19140625 132.896484375 378.951171875 77.916015625 378.947265625 c 0
 76.6416015625 379.01953125 75.3623046875 378.947265625 74.087890625 378.947265625 c 0
 47.955078125 378.947265625 19.986328125 379.001953125 -10 379.001953125 c 0
 -50 379.001953125 -50 319.001953125 -10 319.001953125 c 0xd8
 9.44140625 319.001953125 28.09375 319.024414062 46 319.084960938 c 1
 46 20.001953125 l 1
 -10 20.001953125 l 2
 -50 20.001953125 -50 -39.998046875 -10 -39.998046875 c 2
 76 -39.998046875 l 1
 250 -39.998046875 l 1
 510 -39.998046875 l 2
 519.4140625 -39.998046875 526.612304688 -36.6748046875 531.594726562 -31.5927734375 c 0
 536.676757812 -26.6103515625 540 -19.412109375 540 -9.9990234375 c 2
 540 109.000976562 l 2
 540 149.000976562 480 149.000976562 480 109.000976562 c 2
 480 20.0009765625 l 1
 280 20.0009765625 l 1
 280 326.182617188 l 1
 416.583007812 338.135742188 474.212890625 369.532226562 534.000976562 451.000976562 c 0
 558.000976562 484.000976562 509.000976562 519.000976562 486.000976562 487.000976562 c 0
 436.026367188 418.361328125 384.239257812 393.224609375 280 384.087890625 c 1
 280 710 l 2
 280 727 267 740 250 740 c 2
 164 740 l 2
 124 740 124 680 164 680 c 2xb8
106.000976562 319.484375 m 1
 148.53515625 319.939453125 186.279296875 320.7890625 220.000976562 322.322265625 c 1
 220.000976562 20.001953125 l 1
 106.000976562 20.001953125 l 1
 106.000976562 319.484375 l 1
EndSplineSet
EndChar

StartChar: ltr103
Encoding: 103 103 33
Width: 650
GlyphClass: 2
Flags: MW
HStem: -40 59.2124 439 60
VStem: 220 60<210 439 230 439 230 469> 480 60<176.5 230 162.5 439>
LayerCount: 2
Fore
SplineSet
-10 439 m 2
 46 439 l 1
 46 19.2119140625 l 1
 -9 19 l 2
 -48 20 -49 -39 -10 -40 c 2
 76 -40 l 1
 250 -40 l 2
 445 -40 540 95 540 230 c 2
 541 468 l 2
 541 484 528 498 511 498 c 2
 250 499 l 2
 234 499 220 486 220 469 c 2
 220 230 l 2
 220 190 280 190 280 230 c 2
 280 439 l 1
 480 439 l 1
 480 230 l 2
 480 123 401 20 250 20 c 2
 106 19.4443359375 l 1
 106 469 l 2
 106 486 93 499 76 499 c 2
 -10 499 l 2
 -50 499 -50 439 -10 439 c 2
EndSplineSet
EndChar

StartChar: ltr104
Encoding: 104 104 34
Width: 650
GlyphClass: 2
Flags: MW
HStem: 200 60<164 336>
VStem: -40 60<-18.499 109 20 109 20 109 349 439> 480 60<20 109 20 20 349 439>
LayerCount: 2
Fore
SplineSet
164 200 m 2
 336 200 l 2
 376 200 376 260 336 260 c 2
 164 260 l 2
 124 260 124 200 164 200 c 2
20 349 m 2
 20 439 l 1
 480 439 l 1
 480 349 l 2
 480 309 540 309 540 349 c 2
 540 469 l 2
 540 478.4140625 536.676757812 485.612304688 531.594726562 490.594726562 c 0
 526.612304688 495.676757812 519.4140625 499 510 499 c 2
 -10 499 l 2
 -27 499 -40 486 -40 469 c 2
 -40 349 l 2
 -40 309 20 309 20 349 c 2
-40 109 m 2
 -40 -9.9990234375 l 2
 -40 -26.9990234375 -27 -39.9990234375 -10 -39.9990234375 c 2
 510 -39.9990234375 l 2
 519.4140625 -39.9990234375 526.612304688 -36.67578125 531.594726562 -31.59375 c 0
 536.676757812 -26.611328125 540 -19.4130859375 540 -10 c 2
 540 109 l 2
 540 149 480 149 480 109 c 2
 480 20 l 1
 20 20 l 1
 20 109 l 2
 20 149 -40 149 -40 109 c 2
EndSplineSet
EndChar

StartChar: ltr105
Encoding: 105 105 35
Width: 650
GlyphClass: 2
Flags: MW
HStem: -40 60 439 60
VStem: -40 60<210 326 230 326 230 349>
LayerCount: 2
Fore
SplineSet
393 429.459960938 m 1
 393 19.9990234375 l 1
 336 19.9990234375 l 2
 296 19.9990234375 296 -40.0009765625 336 -40.0009765625 c 2
 423 -40.0009765625 l 1
 510 -40.0009765625 l 2
 550 -40.0009765625 550 19.9990234375 510 19.9990234375 c 2
 453 19.9990234375 l 1
 453 438.999023438 l 1
 510 438.999023438 l 2
 550 438.999023438 550 498.999023438 510 498.999023438 c 2
 429.266601562 498.999023438 l 2
 425.561523438 499.607421875 421.498046875 499.51171875 417.124023438 498.536132812 c 0
 414.955078125 498.180664062 412.931640625 497.62890625 411.0546875 496.90625 c 2
 -18 378 l 2
 -31 374 -40 363 -40 349 c 2
 -40 230 l 2
 -40 190 20 190 20 230 c 2
 20 326 l 1
 393 429.459960938 l 1
EndSplineSet
EndChar

StartChar: ltr106
Encoding: 106 106 36
Width: 650
GlyphClass: 2
Flags: MW
HStem: -180 60<129.501 199.337 129.501 213.417> 439.016 59.9836
VStem: -40 60
LayerCount: 2
Fore
SplineSet
363.864257812 -22.0693359375 m 0
 364.765625 -19.9189453125 365.489257812 -17.5654296875 366.001953125 -15.001953125 c 2
 438.001953125 470.998046875 l 2
 438.76953125 475.275390625 438.743164062 479.215820312 438.078125 482.790039062 c 0
 475.904296875 502.284179688 504.694335938 530.41796875 534.002929688 570.999023438 c 0
 558.002929688 603.999023438 509.002929688 638.999023438 486.002929688 606.999023438 c 0
 403.002929688 490.999023438 315.002929688 498.999023438 -9.9970703125 498.999023438 c 0
 -19.4111328125 498.999023438 -26.609375 495.67578125 -31.591796875 490.59375 c 0
 -36.673828125 485.611328125 -39.9970703125 478.413085938 -39.9970703125 469 c 2
 -39.9970703125 349 l 2
 -39.9970703125 309 20.0029296875 309 20.0029296875 349 c 2
 20.0029296875 439.016601562 l 1
 192.993164062 439.224609375 299.879882812 441.653320312 374.732421875 459.8828125 c 1
 306.001953125 -5 l 2
 305.908203125 -5.51953125 305.826171875 -6.0341796875 305.755859375 -6.5439453125 c 0
 283.185546875 -86.279296875 234.672851562 -120 164.000976562 -120 c 0
 95.0009765625 -120 19.0009765625 -69 20.0009765625 -10 c 0
 21.0009765625 30 -38.9990234375 30 -39.9990234375 -10 c 0
 -40.9990234375 -93 57.0009765625 -180 164.000976562 -180 c 0
 262.833007812 -180 331.384765625 -136.044921875 363.864257812 -22.0693359375 c 0
EndSplineSet
EndChar

StartChar: ltr107
Encoding: 107 107 37
Width: 650
GlyphClass: 2
Flags: MW
HStem: -50 60 442 60
VStem: -40 60 480 60
LayerCount: 2
Fore
SplineSet
20 430.05859375 m 1
 19.9990234375 471.999023438 l 2
 19.9990234375 511.999023438 -40.0009765625 511.999023438 -40.0009765625 471.999023438 c 2
 -40.0009765625 355.448242188 l 2
 -42.2587890625 346.845703125 -40.134765625 338.685546875 -35.4951171875 332.235351562 c 0
 -31.9228515625 326.57421875 -26.541015625 322.728515625 -20.5107421875 320.69921875 c 0
 -11.6806640625 317.260742188 -1.4169921875 317.62890625 7.1982421875 323.899414062 c 0
 11.185546875 326.467773438 14.560546875 330.044921875 16.8427734375 334.631835938 c 0
 93.2763671875 442.983398438 172.623046875 441.999023438 250.000976562 441.999023438 c 0
 402.000976562 441.999023438 480.000976562 334.999023438 480.000976562 226.999023438 c 0
 480.000976562 115.999023438 402.000976562 9.9990234375 250.000976562 9.9990234375 c 0
 172.000976562 9.9990234375 92.0009765625 8.9990234375 15.0009765625 118.999023438 c 0
 -8.9990234375 151.999023438 -57.9990234375 116.999023438 -34.9990234375 84.9990234375 c 0
 60.0009765625 -49.0009765625 156.000976562 -50.0009765625 250.000976562 -50.0009765625 c 0
 444.000976562 -50.0009765625 540.000976562 87.9990234375 540.000976562 226.999023438 c 0
 540.000976562 362.999023438 444.000976562 501.999023438 250.000976562 501.999023438 c 0
 174.111328125 501.999023438 96.91796875 501.34765625 20 430.05859375 c 1
EndSplineSet
EndChar

StartChar: ltr108
Encoding: 108 108 38
Width: 650
GlyphClass: 2
Flags: MW
HStem: -146 60<453.001 510.001 453.001 510.001 453.001 530.001> 439 60<336.001 393.001 393.001 393.001 453.001 510.001>
VStem: -40 60
LayerCount: 2
Fore
SplineSet
-13.787109375 -39.7861328125 m 2
 411.849609375 -143.984375 l 2
 414.748046875 -145.090820312 417.885742188 -145.76953125 421.193359375 -145.951171875 c 0
 423.38671875 -146.186523438 425.485351562 -146.194335938 427.484375 -146 c 2
 510.000976562 -146 l 2
 550.000976562 -146 550.000976562 -86 510.000976562 -86 c 2
 453.000976562 -86 l 1
 453.000976562 439 l 1
 510.000976562 439 l 2
 550.000976562 439 550.000976562 499 510.000976562 499 c 2
 423.000976562 499 l 1
 336.000976562 499 l 2
 296.000976562 499 296.000976562 439 336.000976562 439 c 2
 393.000976562 439 l 1
 393.000976562 -77.9423828125 l 1
 20.0009765625 13.369140625 l 1
 20.0009765625 109 l 2
 20.0009765625 149 -39.9990234375 149 -39.9990234375 109 c 2
 -39.9990234375 -7.279296875 l 2
 -40.76953125 -14.791015625 -38.990234375 -22.5302734375 -34.2177734375 -28.609375 c 0
 -29.26953125 -35.1630859375 -21.70703125 -38.888671875 -13.787109375 -39.7861328125 c 2
EndSplineSet
EndChar

StartChar: ltr109
Encoding: 109 109 39
Width: 650
GlyphClass: 2
Flags: MW
HStem: -40 60<-10 53.752 114.045 510> 442 60<336 368.5>
VStem: 480 60<331 401>
LayerCount: 2
Fore
SplineSet
-10 -40 m 2
 510 -40 l 2
 550 -40 550 20 510 20 c 2
 114.044921875 20 l 1
 193 343 l 1
 193 343 222 442 336 442 c 0
 401 442 480 451 480 351 c 0
 480 311 540 311 540 351 c 0
 540 493 445 502 336 502 c 0
 179 501 135 359 135 359 c 1
 53.751953125 20 l 1
 -10 20 l 2
 -50 20 -50 -40 -10 -40 c 2
EndSplineSet
EndChar

StartChar: ltr110
Encoding: 110 110 40
Width: 650
GlyphClass: 2
Flags: MW
HStem: -40 60 439 60<125.5 184>
VStem: -40 60<180 279 180 299.999> 393 60<-14.7085 438.999 19.999 147.479 363.5 438.999 19.999 473.707>
LayerCount: 2
Fore
SplineSet
164 499 m 0
 65 499 -40 369.999023438 -40 229.999023438 c 0
 -40 87.9990234375 65 -40.0009765625 164 -40.0009765625 c 0
 265.852539062 -40.0009765625 343.852539062 34.962890625 393 147.478515625 c 1
 393 -10.001953125 l 2
 393 -19.4150390625 396.323242188 -26.61328125 401.405273438 -31.595703125 c 0
 406.387695312 -36.677734375 413.5859375 -40.0009765625 423 -40.0009765625 c 2
 510 -40.0009765625 l 2
 550 -40.0009765625 550 19.9990234375 510 19.9990234375 c 2
 453 19.9990234375 l 1
 453 438.999023438 l 1
 510 438.999023438 l 2
 550 438.999023438 550 498.999023438 510 498.999023438 c 2
 423 498.999023438 l 2
 413.5859375 498.999023438 406.387695312 495.67578125 401.405273438 490.59375 c 0
 396.323242188 485.611328125 393 478.413085938 393 469 c 0
 393 258 325 20 164 20 c 0
 87 20 20 130 20 230 c 0
 20 328 87 439 164 439 c 0
 204 439 204 499 164 499 c 0
EndSplineSet
EndChar

StartChar: ltr111
Encoding: 111 111 41
Width: 650
GlyphClass: 2
Flags: MW
HStem: -40 60<-30 -10> 439 60
VStem: 46 60<349.001 398.501 20.001 419.501> 393.914 59.0861
LayerCount: 2
Fore
SplineSet
-10 -40 m 2
 510 -39.9990234375 l 2
 550 -39.9990234375 550 20.0009765625 510 20.0009765625 c 2
 453 20.0009765625 l 1
 453 349.000976562 l 2
 453 490.000976562 358 499.000976562 250 499.000976562 c 0
 143 499.000976562 46 490.000976562 46 349.000976562 c 0
 46.3046875 239.333984375 46.609375 129.666992188 46.9140625 20 c 1
 -10 20 l 2
 -50 20 -50 -40 -10 -40 c 2
106 20.0009765625 m 1
 106 349.000976562 l 2
 106 448.000976562 186 439.000976562 250 439.000976562 c 0
 315 439.000976562 393 448.000976562 393 349.000976562 c 2
 393.9140625 20.0009765625 l 1
 106 20.0009765625 l 1
EndSplineSet
EndChar

StartChar: ltr112
Encoding: 112 112 42
Width: 650
GlyphClass: 2
Flags: MW
HStem: -40 60 439 60
VStem: -40 60<176.5 278.928 176.5 296.499> 220 60<210 469 230 437.588>
LayerCount: 2
Fore
SplineSet
271.594726562 490.594726562 m 0
 266.612304688 495.676757812 259.4140625 498.999023438 250 498.999023438 c 0
 54 498.999023438 -40 362.999023438 -40 229.999023438 c 0
 -40 94.9990234375 54 -40.0009765625 250 -40.0009765625 c 2
 423 -40.0009765625 l 1
 510 -40.0009765625 l 2
 550 -40.0009765625 550 19.9990234375 510 19.9990234375 c 2
 453 19.9990234375 l 1
 453 438.999023438 l 1
 510 438.999023438 l 2
 550 438.999023438 550 498.999023438 510 498.999023438 c 2
 423 498.999023438 l 2
 413.5859375 498.999023438 406.387695312 495.67578125 401.405273438 490.59375 c 0
 396.323242188 485.611328125 393 478.413085938 393 469 c 2
 393 20 l 1
 250 20 l 2
 98 20 20 123 20 230 c 0
 20 327.85546875 87.74609375 424.841796875 220 437.587890625 c 1
 220 230 l 2
 220 190 280 190 280 230 c 2
 280 469 l 2
 280 478.4140625 276.676757812 485.612304688 271.594726562 490.594726562 c 0
EndSplineSet
EndChar

StartChar: ltr113
Encoding: 113 113 43
Width: 650
GlyphClass: 2
Flags: MW
HStem: -50 60<173.5 270 173.5 270> 442 60<173.5 288.094 152.5 288.315>
VStem: -40 60<171.5 281 171.5 295> 480 60<429.216 472 429.216 429.216>
LayerCount: 2
Fore
SplineSet
540 352.905273438 m 2
 540 472 l 2
 540 512 480 512 480 472 c 2
 480 429.215820312 l 1
 403.03125 501.342773438 326.1875 502 250 502 c 0
 55 502 -40 363 -40 227 c 0
 -40 88 55 -50 250 -50 c 0
 290 -50 290 10 250 10 c 0
 97 10 20 116 20 227 c 0
 20 335 97 442 250 442 c 0
 326.629882812 442 404.225585938 442.96484375 481.837890625 337.745117188 c 0
 484.982421875 328.912109375 491.828125 323.200195312 499.758789062 320.610351562 c 0
 506.052734375 318.095703125 512.764648438 318.200195312 518.884765625 320.200195312 c 0
 526.63671875 322.354492188 533.518554688 327.407226562 537.190429688 335.358398438 c 0
 539.982421875 340.55859375 541.18359375 346.59765625 540 352.905273438 c 2
EndSplineSet
EndChar

StartChar: ltr114
Encoding: 114 114 44
Width: 650
GlyphClass: 2
Flags: MW
HStem: -180 60<209.573 209.573 209.573 250 209.573 270> 439 60
VStem: -40 60<329 439 349 439 349 469>
LayerCount: 2
Fore
SplineSet
209.573242188 -120 m 1
 443.46875 438.999023438 l 1
 510 438.999023438 l 2
 550 438.999023438 550 498.999023438 510 498.999023438 c 2
 423.41015625 498.999023438 l 2
 422.26171875 499.0625 421.110351562 498.999023438 419.962890625 498.999023438 c 2
 -10 498.999023438 l 2
 -19.4140625 498.999023438 -26.6123046875 495.67578125 -31.5947265625 490.59375 c 0
 -36.6767578125 485.611328125 -40 478.413085938 -40 469 c 2
 -40 349 l 2
 -40 309 20 309 20 349 c 2
 20 439 l 1
 377.426757812 439 l 1
 136 -138 l 2
 131.712890625 -148.575195312 133.143554688 -158.006835938 137.748046875 -165.244140625 c 0
 142.264648438 -173.629882812 150.86328125 -179.8515625 163.54296875 -179.998046875 c 0
 164.70703125 -180.063476562 165.874023438 -180 167.037109375 -180 c 2
 250 -180 l 2
 290 -180 290 -120 250 -120 c 2
 209.573242188 -120 l 1
EndSplineSet
EndChar

StartChar: ltr115
Encoding: 115 115 45
Width: 650
GlyphClass: 2
Flags: MW
HStem: -40 60 201.086 60.1792 439 60
LayerCount: 2
Fore
SplineSet
62 182 m 0
 109 136 161 111 239 81 c 0
 277 67 298 123 261 137 c 0
 191 163 145 184 104 224 c 0
 75 252 33 210 62 182 c 0
97.5947265625 490.594726562 m 0
 92.6123046875 495.676757812 85.4140625 498.999023438 76 498.999023438 c 2
 -10 498.999023438 l 2
 -50 498.999023438 -50 438.999023438 -10 438.999023438 c 2
 49.134765625 438.999023438 l 1
 72.6044921875 325.21875 224.5546875 213.224609375 393 201.084960938 c 1
 393 19.9990234375 l 1
 336 19.9990234375 l 2
 296 19.9990234375 296 -40.0009765625 336 -40.0009765625 c 2
 423 -40.0009765625 l 1
 510 -40.0009765625 l 2
 550 -40.0009765625 550 19.9990234375 510 19.9990234375 c 2
 453 19.9990234375 l 1
 453 229.999023438 l 1
 453 438.999023438 l 1
 510 438.999023438 l 2
 550 438.999023438 550 498.999023438 510 498.999023438 c 2
 423 498.999023438 l 2
 413.5859375 498.999023438 406.387695312 495.67578125 401.405273438 490.59375 c 0
 396.323242188 485.611328125 393 478.413085938 393 469 c 2
 393 261.264648438 l 1
 250.83984375 273.09765625 106 366.25 106 469 c 0
 106 478.4140625 102.676757812 485.612304688 97.5947265625 490.594726562 c 0
EndSplineSet
EndChar

StartChar: ltr116
Encoding: 116 116 46
Width: 650
GlyphClass: 2
Flags: MW
HStem: 439 60<164 219.998 219.998 219.998 280 336>
VStem: -40 60 480 60<10.2539 109 10.2539 10.2539>
LayerCount: 2
Fore
SplineSet
164 439 m 2
 219.998046875 439 l 1
 219.998046875 -71.2841796875 l 1
 19.998046875 10.25390625 l 1
 19.998046875 109 l 2
 19.998046875 149 -40.001953125 149 -40.001953125 109 c 2
 -40.001953125 -8.681640625 l 2
 -40.33984375 -13.6103515625 -39.541015625 -18.6015625 -37.41015625 -23.1572265625 c 0
 -33.8779296875 -31.203125 -27.10546875 -36.3662109375 -19.4150390625 -38.646484375 c 2
 233.514648438 -141.763671875 l 2
 238.12109375 -144.947265625 243.713867188 -146.775390625 249.999023438 -146.501953125 c 0
 256.284179688 -146.775390625 261.876953125 -144.947265625 266.483398438 -141.763671875 c 2
 519.413085938 -38.646484375 l 2
 527.103515625 -36.3662109375 533.875976562 -31.203125 537.408203125 -23.1572265625 c 0
 539.5390625 -18.6015625 540.337890625 -13.6103515625 540 -8.681640625 c 2
 540 109 l 2
 540 149 480 149 480 109 c 2
 480 10.25390625 l 1
 280 -71.2841796875 l 1
 280 439 l 1
 336 439 l 2
 376 439 376 499 336 499 c 2
 250 499 l 1
 164 499 l 2
 124 499 124 439 164 439 c 2
EndSplineSet
EndChar

StartChar: ltr117
Encoding: 117 117 47
Width: 650
GlyphClass: 2
Flags: MW
HStem: -40 60<250.001 393.001 453.001 510.001> 439 60<-9.99902 46.001 46.001 46.001 453.001 510.001>
VStem: 46 60
LayerCount: 2
Fore
SplineSet
402.166015625 491.340820312 m 2
 233.000976562 374 l 2
 200.000976562 351 234.000976562 302 267.000976562 324 c 2
 393.000976562 411.3984375 l 1
 393.000976562 20 l 1
 250.000976562 20 l 2
 98.0009765625 20 106.000976562 130 106.000976562 230 c 2
 106.000976562 469 l 2
 106.000976562 478.4140625 102.677734375 485.612304688 97.595703125 490.594726562 c 0
 92.61328125 495.676757812 85.4150390625 499 76.0009765625 499 c 2
 -9.9990234375 499 l 2
 -49.9990234375 499 -49.9990234375 439 -9.9990234375 439 c 2
 46.0009765625 439 l 1
 46.0009765625 230 l 2
 46.0009765625 88 54.0009765625 -40 250.000976562 -40 c 2
 423.000976562 -40 l 1
 510.000976562 -40 l 2
 550.000976562 -40 550.000976562 20 510.000976562 20 c 2
 453.000976562 20 l 1
 453.000976562 439 l 1
 510.000976562 439 l 2
 550.000976562 439 550.000976562 499 510.000976562 499 c 2
 428.578125 499 l 2
 423.43359375 500.046875 417.83984375 499.649414062 412.1484375 497.302734375 c 0
 408.21484375 495.966796875 404.887695312 493.905273438 402.166015625 491.340820312 c 2
EndSplineSet
EndChar

StartChar: ltr118
Encoding: 118 118 48
Width: 650
GlyphClass: 2
Flags: MW
HStem: -179.026 59.8527 439 60
LayerCount: 2
Fore
SplineSet
323.821289062 -119.173828125 m 1
 281.89453125 -9.2158203125 l 1
 443.776367188 439 l 1
 510 439 l 2
 550 439 550 499 510 499 c 2
 424.741210938 499 l 2
 422.8671875 499.16796875 420.982421875 499.171875 419.1171875 499 c 2
 336 499 l 2
 296 499 296 439 336 439 c 2
 380.552734375 439 l 1
 249.918945312 77.302734375 l 1
 118.530273438 439 l 1
 164 439 l 2
 204 439 204 499 164 499 c 2
 79.8828125 499 l 2
 78.017578125 499.171875 76.1328125 499.16796875 74.2587890625 499 c 2
 -10 499 l 2
 -50 499 -50 439 -10 439 c 2
 55.265625 439 l 1
 219.97265625 -14.4169921875 l 2
 220.404296875 -18.2705078125 221.6484375 -21.7998046875 223.498046875 -24.9267578125 c 2
 274.223632812 -157.961914062 l 2
 275.509765625 -162.544921875 277.810546875 -166.821289062 281.125976562 -170.305664062 c 0
 287.796875 -177.741210938 297.17578125 -180.267578125 306.140625 -179.026367188 c 2
 423 -180 l 2
 463 -180 463 -120 423 -120 c 2
 323.821289062 -119.173828125 l 1
EndSplineSet
EndChar

StartChar: ltr119
Encoding: 119 119 49
Width: 650
GlyphClass: 2
Flags: MW
HStem: -50 60<173.5 326 173.5 347> 442 60<173.5 326>
VStem: -40 60<171.5 281 171.5 295> 480 60<171.5 281>
LayerCount: 2
Fore
SplineSet
250 442 m 0
 402 442 480 335 480 227 c 0
 480 116 402 10 250 10 c 0
 97 10 20 116 20 227 c 0
 20 335 97 442 250 442 c 0
250 502 m 0
 55 502 -40 363 -40 227 c 0
 -40 88 55 -50 250 -50 c 0
 444 -50 540 88 540 227 c 0
 540 363 444 502 250 502 c 0
EndSplineSet
EndChar

StartChar: ltr120
Encoding: 120 120 50
Width: 650
GlyphClass: 2
Flags: MW
HStem: -50 60<211 289 211 297>
LayerCount: 2
Fore
SplineSet
250 414 m 1
 473 101 l 1
 407 9 328 10 250 10 c 0
 172 10 92 9 27 101 c 1
 250 414 l 1
226 483 m 2
 -34 118 l 2
 -42 108 -42 94 -34 84 c 0
 60 -49 156 -50 250 -50 c 0
 344 -50 439 -49 534 83 c 0
 542 94 542 108 534 118 c 2
 274 483 l 2
 263 500 237 500 226 483 c 2
EndSplineSet
EndChar

StartChar: ltr121
Encoding: 121 121 51
Width: 650
GlyphClass: 2
Flags: MW
HStem: 439 60<-10 55.2656 55.2656 55.2656 443.776 510>
LayerCount: 2
Fore
SplineSet
424.741210938 499 m 2
 422.8671875 499.16796875 420.983398438 499.170898438 419.118164062 498.999023438 c 2
 336.000976562 498.999023438 l 2
 296.000976562 498.999023438 296.000976562 438.999023438 336.000976562 438.999023438 c 2
 380.537109375 438.999023438 l 1
 250.000976562 77.9990234375 l 1
 118.564453125 438.999023438 l 1
 149.317382812 438.999023438 l 1
 226.000976562 331.999023438 l 2
 249.000976562 298.999023438 298.000976562 333.999023438 274.000976562 365.999023438 c 2
 191.956054688 480.479492188 l 2
 188.928710938 488.583984375 182.540039062 495.372070312 172.7890625 497.919921875 c 0
 168.661132812 499.295898438 164.389648438 499.58984375 160.251953125 499 c 2
 79.8828125 499 l 2
 78.017578125 499.171875 76.1328125 499.16796875 74.2587890625 499 c 2
 -10 499 l 2
 -50 499 -50 439 -10 439 c 2
 55.265625 439 l 1
 222 -20 l 2
 231 -44 269 -44 278 -20 c 2
 443.776367188 439 l 1
 510 439 l 2
 550 439 550 499 510 499 c 2
 424.741210938 499 l 2
EndSplineSet
EndChar

StartChar: ltr122
Encoding: 122 122 52
Width: 650
GlyphClass: 2
Flags: MW
HStem: -40 60<-10 510 453 510 453 510 453 530> 439.095 59.9415 680 60<453 530 510 530>
VStem: -40 60<-14.7075 108.999 19.999 108.999 19.999 108.999>
LayerCount: 2
Fore
SplineSet
510 740 m 2
 423 739.999023438 l 2
 406 739.999023438 393 726.999023438 393 709.999023438 c 2
 393 499.036132812 l 1
 142.202148438 499.602539062 130.11328125 504.705078125 29 366.999023438 c 0
 6 333.999023438 54 298.999023438 78 330.999023438 c 0
 165.97265625 452.439453125 183.5390625 440.3828125 393 439.094726562 c 1
 393 19.9990234375 l 1
 20 19.9990234375 l 1
 20 108.999023438 l 2
 20 148.999023438 -40 148.999023438 -40 108.999023438 c 2
 -40 -10.0009765625 l 2
 -40 -19.4140625 -36.6767578125 -26.6123046875 -31.5947265625 -31.5947265625 c 0
 -26.6123046875 -36.6767578125 -19.4140625 -40 -10 -40 c 2
 423 -40 l 1
 510 -40 l 2
 550 -40 550 20 510 20 c 2
 453 20 l 1
 453 469 l 1
 453 680 l 1
 510 680 l 2
 550 680 550 740 510 740 c 2
EndSplineSet
EndChar

StartChar: ltr48
Encoding: 48 48 53
Width: 650
GlyphClass: 2
Flags: MW
HStem: -40 60<170.5 329.5 170.5 343.5> 680 60<170 329.5>
VStem: -40 60<243 455 243 483> 220 60<210 469 230 469> 480 60<243 455>
CounterMasks: 1 38
LayerCount: 2
Fore
SplineSet
220 469 m 2
 220 230 l 2
 220 190 280 190 280 230 c 2
 280 469 l 2
 280 509 220 509 220 469 c 2
250 680 m 0
 409 680 480 561 480 349 c 0
 480 137 409 20 250 20 c 0
 91 20 20 137 20 349 c 0
 20 561 90 680 250 680 c 0
250 740 m 0
 62 740 -40 617 -40 349 c 0
 -40 81 61 -40 250 -40 c 0
 437 -40 540 81 540 349 c 0
 540 617 437 740 250 740 c 0
EndSplineSet
EndChar

StartChar: ltr49
Encoding: 49 49 54
Width: 650
GlyphClass: 2
Flags: MW
HStem: -40 60<-10 220 280 510> 680 60<-10 220 220 220>
LayerCount: 2
Fore
SplineSet
-10 680 m 2
 220 680 l 1
 220 20 l 1
 -10 20 l 2
 -50 20 -50 -40 -10 -40 c 2
 250 -40 l 1
 510 -40 l 2
 550 -40 550 20 510 20 c 2
 280 20 l 1
 280 710 l 2
 280 727 267 740 250 740 c 2
 -10 740 l 2
 -50 740 -50 680 -10 680 c 2
EndSplineSet
EndChar

StartChar: ltr50
Encoding: 50 50 55
Width: 650
GlyphClass: 2
Flags: MW
HStem: -40 60<-10 510> 200 60<144 276.699 144 309.598> 641.649 21G 680 60
VStem: -40 60<458.999 468.999 468.999 521.999 641.648 709.999> 479.998 60
LayerCount: 2
Fore
SplineSet
540 468 m 2
 543 614 445 740 250 740 c 0
 143.826171875 740 67.5830078125 699.797851562 20 641.6484375 c 1
 20 709.999023438 l 2
 20 749.999023438 -40 749.999023438 -40 709.999023438 c 2
 -40 468.999023438 l 2
 -40 448.999023438 -25 438.999023438 -10 438.999023438 c 0
 5 438.999023438 20 448.999023438 20 468.999023438 c 0
 20 574.999023438 98 679.999023438 250 679.999023438 c 0
 401 679.999023438 483 585.999023438 480 469.999023438 c 0
 479.984375 469.36328125 479.998046875 468.737304688 479.998046875 468.120117188 c 0
 479.51953125 358.47265625 389.397460938 260 164 260 c 0
 124 260 124 200 164 200 c 0
 455.196289062 200 539.536132812 338.236328125 539.998046875 467.926757812 c 2
 540 468 l 2
-10 -40 m 2
 510 -40 l 2
 550 -40 550 20 510 20 c 2
 -10 20 l 2
 -50 20 -50 -40 -10 -40 c 2
EndSplineSet
EndChar

StartChar: ltr51
Encoding: 51 51 56
Width: 650
GlyphClass: 2
Flags: MW
HStem: -40 60 319 60<164 336> 641.649 21G 680 60
VStem: -40 60<176.501 250.001 176.501 250.001 459.001 469 469 522.001 641.649 710> 481 59<175.501 229.001>
LayerCount: 2
Fore
SplineSet
164 319 m 2
 336 319 l 2
 376 319 376 379 336 379 c 2
 164 379 l 2
 124 379 124 319 164 319 c 2
-10 439 m 0
 5 439 20 449.000976562 20 469.000976562 c 0
 20 575.000976562 98 680.000976562 250 680.000976562 c 0
 401 680.000976562 480 575.000976562 480 469.000976562 c 2
 481 229.000976562 l 2
 481 122.000976562 401 20.0009765625 250 20.0009765625 c 0
 98 20.0009765625 20 123.000976562 20 230.000976562 c 0
 20 270.000976562 -40 270.000976562 -40 230.000976562 c 0
 -40 95.0009765625 54 -39.9990234375 250 -39.9990234375 c 0
 445 -39.9990234375 540 95.0009765625 540 230.000976562 c 2
 541 468.000976562 l 2
 541 603.000976562 445 740.000976562 250 740.000976562 c 0
 143.826171875 740.000976562 67.5830078125 699.798828125 20 641.649414062 c 1
 20 710 l 2
 20 750 -40 750 -40 710 c 2
 -40 469 l 2
 -40 449 -25 439 -10 439 c 0
EndSplineSet
EndChar

StartChar: ltr52
Encoding: 52 52 57
Width: 650
GlyphClass: 2
Flags: MW
HStem: -40 60<336 393 316 423 453 510> 680 60<-10 46 46 46 106 164 336 393 393 393 453 510>
LayerCount: 2
Fore
SplineSet
423 740 m 1
 336 740 l 2
 296 740 296 680 336 680 c 2
 393 680 l 1
 393 379 l 1
 106 379 l 1
 106 680 l 1
 164 680 l 2
 204 680 204 740 164 740 c 2
 76 740 l 1
 -10 740 l 2
 -50 740 -50 680 -10 680 c 2
 46 680 l 1
 46 349 l 2
 46 332 59 319 76 319 c 2
 393 319 l 1
 393 20 l 1
 336 20 l 2
 296 20 296 -40 336 -40 c 2
 423 -40 l 1
 510 -40 l 2
 550 -40 550 20 510 20 c 2
 453 20 l 1
 453 349 l 1
 453 680 l 1
 510 680 l 2
 550 680 550 740 510 740 c 2
 423 740 l 1
EndSplineSet
EndChar

StartChar: ltr53
Encoding: 53 53 58
Width: 650
GlyphClass: 2
Flags: MW
HStem: -40 60<174 325.5 174 347.5> 439 60<144 277> 680 60<-10 480 480 480>
VStem: -40 60<176.5 250 176.5 250> 480 60<176.5 284.5 589 680>
LayerCount: 2
Fore
SplineSet
164 439 m 0
 390 439 480 339 480 230 c 0
 480 123 401 20 250 20 c 0
 98 20 20 123 20 230 c 0
 20 270 -40 270 -40 230 c 0
 -40 95 54 -40 250 -40 c 0
 445 -40 540 95 540 230 c 0
 540 359 456 499 164 499 c 0
 124 499 124 439 164 439 c 0
531.594726562 731.594726562 m 0
 526.612304688 736.676757812 519.4140625 740 510 740 c 2
 -10 740 l 2
 -50 740 -50 680 -10 680 c 2
 480 680 l 1
 480 589 l 2
 480 549 540 549 540 589 c 2
 540 710 l 2
 540 719.4140625 536.676757812 726.612304688 531.594726562 731.594726562 c 0
EndSplineSet
EndChar

StartChar: ltr54
Encoding: 54 54 59
Width: 650
GlyphClass: 2
Flags: MW
HStem: -40 60<174 325.5 174 347.5> 439 60<174 325.5> 680 60<-10 480 480 480>
VStem: -40 60<176.5 282.5 176.5 296.5> 480 60<176.5 282.5 589 680>
LayerCount: 2
Fore
SplineSet
250 20 m 0
 98 20 20 123 20 230 c 0
 20 335 98 439 250 439 c 0
 401 439 480 335 480 230 c 0
 480 123 401 20 250 20 c 0
250 -40 m 0
 445 -40 540 95 540 230 c 0
 540 363 445 499 250 499 c 0
 54 499 -40 363 -40 230 c 0
 -40 95 54 -40 250 -40 c 0
531.594726562 731.594726562 m 0
 526.612304688 736.676757812 519.4140625 740 510 740 c 2
 -10 740 l 2
 -50 740 -50 680 -10 680 c 2
 480 680 l 1
 480 589 l 2
 480 549 540 549 540 589 c 2
 540 710 l 2
 540 719.4140625 536.676757812 726.612304688 531.594726562 731.594726562 c 0
EndSplineSet
EndChar

StartChar: ltr55
Encoding: 55 55 60
Width: 650
GlyphClass: 2
Flags: MW
HStem: -40 60<336 393 316 423 453 510> 319 60<164 250> 680 60<20 393 393 393 453 510>
VStem: -40 60<449 680 469 680 469 710>
LayerCount: 2
Fore
SplineSet
164 319 m 2
 250 319 l 2
 290 319 290 379 250 379 c 2
 164 379 l 2
 124 379 124 319 164 319 c 2
453 20 m 1
 453 680 l 1
 510 680 l 2
 550 680 550 740 510 740 c 2
 423 740 l 1
 -10 740 l 2
 -19.4140625 740 -26.6123046875 736.676757812 -31.5947265625 731.594726562 c 0
 -36.6767578125 726.612304688 -40 719.4140625 -40 710 c 2
 -40 469 l 2
 -40 429 20 429 20 469 c 2
 20 680 l 1
 393 680 l 1
 393 20 l 1
 336 20 l 2
 296 20 296 -40 336 -40 c 2
 423 -40 l 1
 510 -40 l 2
 550 -40 550 20 510 20 c 2
 453 20 l 1
EndSplineSet
EndChar

StartChar: ltr56
Encoding: 56 56 61
Width: 650
GlyphClass: 2
Flags: MW
HStem: -40 60<174 325.5 174 347.5> 319 60<164 336> 680 60<174 325.5>
VStem: -40 60<162.5 469 230 469> 480 60<176.5 469 230 469>
LayerCount: 2
Fore
SplineSet
164 319 m 2
 336 319 l 2
 376 319 376 379 336 379 c 2
 164 379 l 2
 124 379 124 319 164 319 c 2
20 230 m 2
 20 469 l 2
 20 575 98 680 250 680 c 0
 401 680 480 575 480 469 c 2
 480 230 l 2
 480 123 401 20 250 20 c 0
 98 20 20 123 20 230 c 2
540 230 m 2
 540 469 l 2
 540 603 445 740 250 740 c 0
 54 740 -40 603 -40 469 c 2
 -40 230 l 2
 -40 95 54 -40 250 -40 c 0
 445 -40 540 95 540 230 c 2
EndSplineSet
EndChar

StartChar: ltr57
Encoding: 57 57 62
Width: 650
GlyphClass: 2
Flags: MW
HStem: -40 60<-10 510> 200 60<174 325.5 174 347.5> 680 60<174 325.5>
VStem: -40 60<416 522 416 536> 480 60<416 522>
LayerCount: 2
Fore
SplineSet
-10 -40 m 2
 510 -40 l 2
 550 -40 550 20 510 20 c 2
 -10 20 l 2
 -50 20 -50 -40 -10 -40 c 2
250 680 m 0
 401 680 480 575 480 469 c 0
 480 363 401 260 250 260 c 0
 98 260 20 363 20 469 c 0
 20 575 98 680 250 680 c 0
250 740 m 0
 54 740 -40 603 -40 469 c 0
 -40 335 54 200 250 200 c 0
 445 200 540 335 540 469 c 0
 540 603 445 740 250 740 c 0
EndSplineSet
EndChar

StartChar: ltr33
Encoding: 33 33 64
Width: 351
GlyphClass: 2
Flags: W
LayerCount: 2
Fore
SplineSet
16 -26 m 2
 262 318 l 1
 293 369 217 416 185 365 c 2
 -36 6 l 2
 -57 -28 -5 -60 16 -26 c 2
16 333 m 2
 262 679 l 1
 293 730 217 777 186 726 c 2
 -36 365 l 2
 -56 331 -5 299 16 333 c 2
EndSplineSet
EndChar

StartChar: ltr34
Encoding: 34 34 65
Width: 650
GlyphClass: 2
Flags: W
LayerCount: 2
Fore
SplineSet
59 685 m 2
 406 444 l 2
 439 422 473 471 440 494 c 2
 93 735 l 2
 60 757 26 708 59 685 c 2
EndSplineSet
EndChar

StartChar: ltr35
Encoding: 35 35 66
Width: 650
GlyphClass: 2
Flags: MW
HStem: 200 60<-10 278.316 278.316 278.316 350.684 510> 439 60<-9.99902 149.279 221.545 510.001>
LayerCount: 2
Fore
SplineSet
339.748046875 260 m 2
 337.110351562 260.375976562 334.418945312 260.393554688 331.744140625 260 c 2
 -10 260 l 2
 -50 260 -50 200 -10 200 c 2
 278.31640625 200 l 1
 140 7 l 2
 116 -25 165 -60 188 -27 c 2
 350.68359375 200 l 1
 510 200 l 2
 550 200 550 260 510 260 c 2
 339.748046875 260 l 2
149.279296875 499 m 1
 -9.9990234375 499 l 2
 -49.9990234375 499 -49.9990234375 439 -9.9990234375 439 c 2
 160.252929688 439 l 2
 162.890625 438.624023438 165.58203125 438.606445312 168.256835938 439 c 2
 510.000976562 439 l 2
 550.000976562 439 550.000976562 499 510.000976562 499 c 2
 221.544921875 499 l 1
 360.000976562 693 l 2
 384.000976562 725 335.000976562 760 312.000976562 727 c 2
 149.279296875 499 l 1
EndSplineSet
EndChar

StartChar: ltr36
Encoding: 36 36 67
Width: 650
GlyphClass: 2
Flags: MW
HStem: -40 60<164.001 227.354> 559 60<-10 46 -30 46 106 220 280 383.025 383.025 383.025>
VStem: 46 60<329 559 349 559 619 710> 220 60<329 559 349 559 619 710>
LayerCount: 2
Fore
SplineSet
280 619 m 1
 280 710 l 2
 280 750 220 750 220 710 c 2
 220 619 l 1
 106 619 l 1
 106 710 l 2
 106 750 46 750 46 710 c 2
 46 619 l 1
 -10 619 l 2
 -50 619 -50 559 -10 559 c 2
 46 559 l 1
 46 349 l 2
 46 309 106 309 106 349 c 2
 106 559 l 1
 220 559 l 1
 220 349 l 2
 220 309 280 309 280 349 c 2
 280 559 l 1
 383.025390625 559 l 1
 227.354492188 20 l 1
 164.000976562 20 l 2
 124.000976562 20 124.000976562 -40 164.000976562 -40 c 2
 247.650390625 -40 l 2
 249.788085938 -40.2119140625 251.942382812 -40.2158203125 254.071289062 -39.9990234375 c 2
 336.001953125 -39.9990234375 l 2
 376.001953125 -39.9990234375 376.001953125 20.0009765625 336.001953125 20.0009765625 c 2
 289.9765625 20.0009765625 l 1
 445.647460938 559.000976562 l 1
 510.000976562 559.000976562 l 2
 550.000976562 559.000976562 550.000976562 619.000976562 510.000976562 619.000976562 c 2
 425.3515625 619.000976562 l 2
 423.213867188 619.212890625 421.059570312 619.216796875 418.930664062 619 c 2
 280 619 l 1
EndSplineSet
EndChar

StartChar: ltr38
Encoding: 38 38 68
Width: 650
GlyphClass: 2
Flags: MW
HStem: 439 60<-30 -10 365.846 423>
VStem: 480 60
LayerCount: 2
Fore
SplineSet
-10 439 m 2
 51 438.999023438 l 1
 134 -15.0009765625 l 2
 140 -44.0009765625 188 -44.0009765625 194 -15.0009765625 c 2
 275 438.999023438 l 1
 305.845703125 438.999023438 l 1
 303.028320312 -110.390625 l 2
 302.227539062 -114.908203125 302.576171875 -119.520507812 303.853515625 -123.873046875 c 0
 305.735351562 -132.086914062 310.563476562 -138.013671875 316.697265625 -141.654296875 c 0
 323.845703125 -146.521484375 333.068359375 -148.305664062 342.817382812 -144.524414062 c 0
 346.580078125 -143.353515625 350.111328125 -141.486328125 353.135742188 -138.923828125 c 2
 524.999023438 -36 l 2
 534.999023438 -30 539.999023438 -21 539.999023438 -10 c 2
 539.999023438 109 l 2
 539.999023438 149 479.999023438 149 479.999023438 109 c 2
 479.999023438 7 l 1
 363.271484375 -62.892578125 l 1
 365.845703125 439 l 1
 423 439 l 2
 463 439 463 499 423 499 c 2
 336 499 l 1
 250 499 l 2
 235 499 223 489 220 474 c 2
 164 158 l 1
 106 474 l 2
 103 489 91 499 76 499 c 2
 -10 499 l 2
 -50 499 -50 439 -10 439 c 2
EndSplineSet
EndChar

StartChar: ltr39
Encoding: 39 39 69
Width: 650
GlyphClass: 2
Flags: MW
HStem: 680 60<76 352 352 352>
LayerCount: 2
Fore
SplineSet
76 680 m 2
 352 680 l 1
 226 486 l 2
 202 454 251 419 274 452 c 2
 463 692 l 2
 477 711 462 740 438 740 c 2
 76 740 l 2
 36 740 36 680 76 680 c 2
EndSplineSet
EndChar

StartChar: ltr40
Encoding: 40 40 70
Width: 650
GlyphClass: 2
Flags: MW
HStem: 319 60<76 220.105>
VStem: 220.105 59.8946
LayerCount: 2
Fore
SplineSet
280 349 m 0
 280 461 279 573 440 685 c 0
 473 708 439 758 406 735 c 0
 235.453125 615.15625 221.279296875 497.01171875 220.10546875 379 c 1
 76 379 l 2
 36 379 36 319 76 319 c 2
 220.10546875 319 l 1
 221.278320312 200.8671875 235.4453125 82.083984375 406 -35 c 0
 439 -57 473 -8 440 15 c 0
 279 126 280 239 280 349 c 0
EndSplineSet
EndChar

StartChar: ltr41
Encoding: 41 41 71
Width: 650
GlyphClass: 2
Flags: MW
HStem: 319 60<279.895 423 279.894 443>
VStem: 220 59.8941
LayerCount: 2
Fore
SplineSet
59 685 m 0
 221 573 220.000976562 461 220.000976562 349 c 0
 220.000976562 239 221.000976562 126 59.0009765625 15 c 0
 26.0009765625 -8 60.0009765625 -57 93.0009765625 -35 c 0
 264.477539062 82.083984375 278.716796875 200.8671875 279.89453125 319 c 1
 423 319 l 2
 463 319 463 379 423 379 c 2
 279.893554688 379 l 1
 278.713867188 497.01171875 264.46875 615.15625 93 735 c 0
 60 757 26 708 59 685 c 0
EndSplineSet
EndChar

StartChar: ltr44
Encoding: 44 44 72
Width: 650
GlyphClass: 2
Flags: MW
VStem: 205 90<230 260>
LayerCount: 2
Fore
SplineSet
205 230 m 2
 220 -10 l 2
 220 -50 280 -50 280 -10 c 2
 295 230 l 2
 295 290 205 290 205 230 c 2
EndSplineSet
EndChar

StartChar: ltr45
Encoding: 45 45 73
Width: 650
GlyphClass: 2
Flags: MW
HStem: 439 60<76 423>
LayerCount: 2
Fore
SplineSet
76 439 m 2
 423 439 l 2
 463 439 463 499 423 499 c 2
 76 499 l 2
 36 499 36 439 76 439 c 2
EndSplineSet
EndChar

StartChar: ltr46
Encoding: 46 46 74
Width: 650
GlyphClass: 2
Flags: MW
VStem: 119 90<230 260> 291 90<230 260>
LayerCount: 2
Fore
SplineSet
291 230 m 2
 306 -10 l 2
 306 -50 366 -50 366 -10 c 2
 381 230 l 2
 381 290 291 290 291 230 c 2
119 230 m 2
 134 -10 l 2
 134 -50 194 -50 194 -10 c 2
 209 230 l 2
 209 290 119 290 119 230 c 2
EndSplineSet
EndChar

StartChar: ltr58
Encoding: 58 58 75
Width: 650
GlyphClass: 2
Flags: MW
HStem: -40 60<-10.002 438.893>
VStem: -40 60<349 469 379 469 379 469>
LayerCount: 2
Fore
SplineSet
-40 349 m 1
 -40.001953125 230 l 2
 -40.001953125 190 19.998046875 190 19.998046875 230 c 2
 19.998046875 319 l 1
 150.998046875 319 l 1
 438.892578125 20 l 1
 -10.001953125 20 l 2
 -50.001953125 20 -50.001953125 -40 -10.001953125 -40 c 2
 502.966796875 -40 l 2
 509.203125 -41.5322265625 515.469726562 -40.7080078125 521.049804688 -38.234375 c 0
 529.8125 -35.1884765625 535.536132812 -28.51953125 538.220703125 -20.7412109375 c 0
 541.827148438 -12.1806640625 541.619140625 -2.05078125 535.104492188 7.1875 c 0
 533.678710938 9.4033203125 531.94140625 11.4306640625 529.892578125 13.1865234375 c 2
 186 370 l 2
 180 376 172 379 164 379 c 2
 20 379 l 1
 20 469 l 2
 20 509 -40 509 -40 469 c 2
 -40 349 l 1
EndSplineSet
EndChar

StartChar: ltr59
Encoding: 59 59 76
Width: 351
GlyphClass: 2
Flags: MW
VStem: 56 90<710 740> 71 60<-30 -10>
LayerCount: 2
Fore
SplineSet
56 710 m 2x80
 71 -10 l 2
 71 -50 131 -50 131 -10 c 2x40
 146 710 l 2
 146 770 56 770 56 710 c 2x80
EndSplineSet
EndChar

StartChar: ltr63
Encoding: 63 63 77
Width: 650
GlyphClass: 2
Flags: MW
HStem: -40 60 641.649 21G 680 60
VStem: -40 60<459.001 469.001 469.001 522.001 641.649 710.001> 481 59<175.501 229.001>
LayerCount: 2
Fore
SplineSet
20 641.649414062 m 1
 20 710.000976562 l 2
 20 750.000976562 -40 750.000976562 -40 710.000976562 c 2
 -40 469.000976562 l 2
 -40 449.000976562 -25 439.000976562 -10 439.000976562 c 0
 5 439.000976562 20 449.000976562 20 469.000976562 c 0
 20 575.000976562 98 680.000976562 250 680.000976562 c 0
 401 680.000976562 480 575.000976562 480 469.000976562 c 2
 481 229.000976562 l 2
 481 122.000976562 401 20.0009765625 250 20.0009765625 c 0
 210 20.0009765625 210 -39.9990234375 250 -39.9990234375 c 0
 445 -39.9990234375 540 95.0009765625 540 230.000976562 c 2
 541 468.000976562 l 2
 541 603.000976562 445 740.000976562 250 740.000976562 c 0
 143.826171875 740.000976562 67.5830078125 699.798828125 20 641.649414062 c 1
EndSplineSet
EndChar

StartChar: ltr95
Encoding: 95 95 78
Width: 650
GlyphClass: 2
Flags: MW
HStem: -40 60<-10 510>
LayerCount: 2
Fore
SplineSet
-10 -40 m 2
 510 -40 l 2
 550 -40 550 20 510 20 c 2
 -10 20 l 2
 -50 20 -50 -40 -10 -40 c 2
EndSplineSet
EndChar
